<svg width="96" height="48" viewBox="0 0 96 48" fill="none" xmlns="http://www.w3.org/2000/svg">
<path d="M20.5037 19.0916C16.6078 19.0916 13.7358 22.1883 13.7358 25.6098C13.7358 28.7815 16.2831 32.2778 20.5037 32.2778C24.7493 32.2778 27.2717 28.7065 27.2717 25.6597C27.2717 22.0635 24.2998 19.0916 20.5037 19.0916ZM20.5037 30.1301C17.8815 30.1301 16.0833 27.9323 16.0833 25.6847C16.0833 23.437 17.8565 21.2643 20.5037 21.2643C23.151 21.2643 24.9241 23.462 24.9241 25.6847C24.9241 28.0073 23.0511 30.1301 20.5037 30.1301Z" fill="black"/>
<path d="M31.9168 15.72H29.5693V31.9531H31.9168V15.72Z" fill="black"/>
<path d="M37.7108 15.72H35.3633V31.9531H37.7108V15.72Z" fill="black"/>
<path d="M81.5648 19.0916C77.6689 19.0916 74.7969 22.1883 74.7969 25.6098C74.7969 28.7815 77.3442 32.2778 81.5648 32.2778C85.8104 32.2778 88.3328 28.7065 88.3328 25.6597C88.3328 22.0635 85.3609 19.0916 81.5648 19.0916ZM81.5648 30.1301C78.9425 30.1301 77.1444 27.9323 77.1444 25.6847C77.1444 23.437 78.9176 21.2643 81.5648 21.2643C84.2121 21.2643 85.9852 23.462 85.9852 25.6847C85.9852 28.0073 84.1122 30.1301 81.5648 30.1301Z" fill="black"/>
<path d="M92.8282 20.565H92.7783V19.4412H90.5806V31.9781H92.9281V25.1103C92.9281 23.3122 93.5525 22.3631 94.3017 21.9636C94.8761 21.6639 95.6253 21.514 95.9999 21.514V19.0916C95.4255 19.1165 93.8272 19.1665 92.8282 20.565Z" fill="black"/>
<path d="M6.79292 21.2393C8.39126 21.2393 9.66493 22.0385 10.4142 23.1623L12.1873 21.7388C10.9636 20.1405 9.01561 19.0916 6.76795 19.0916C2.87201 19.0916 0 22.1883 0 25.6098C0 28.7815 2.54734 32.2778 6.76795 32.2778C9.16545 32.2778 10.9886 31.154 12.1623 29.6056L10.3892 28.1821C9.61498 29.3309 8.31633 30.1051 6.76795 30.1051C4.14568 30.1051 2.34755 27.9074 2.34755 25.6597C2.37253 23.437 4.14568 21.2393 6.79292 21.2393Z" fill="black"/>
<path d="M60.9864 21.2393C62.5847 21.2393 63.8584 22.0385 64.6076 23.1623L66.3808 21.7388C65.157 20.1405 63.2091 19.0916 60.9614 19.0916C57.0655 19.0916 54.1934 22.1883 54.1934 25.6098C54.1934 28.7815 56.7408 32.2778 60.9614 32.2778C63.3589 32.2778 65.182 31.154 66.3558 29.6056L64.5826 28.1821C63.8084 29.3309 62.5098 30.1051 60.9614 30.1051C58.3391 30.1051 56.541 27.9074 56.541 25.6597C56.591 23.437 58.3391 21.2393 60.9864 21.2393Z" fill="black"/>
<path d="M46.4515 19.0916C42.9302 19.0916 40.0332 21.9136 40.0332 25.6597C40.0332 29.206 42.8553 32.2529 46.4016 32.2529C48.2496 32.2529 50.8969 31.3538 52.1955 28.5317H49.7231C49.0738 29.4058 47.9499 30.1051 46.5015 30.1051C44.9281 30.1051 42.9801 29.1061 42.3807 26.6836H52.7699C52.7949 26.5338 52.8448 25.8845 52.8448 25.4849C52.7949 21.8387 49.848 19.0916 46.4515 19.0916ZM42.3807 24.9105C42.5056 23.0874 44.1789 21.2393 46.4265 21.2393C48.6992 21.2393 50.3724 23.0624 50.4723 24.9105H42.3807Z" fill="black"/>
<path d="M72.1748 15.72H69.8273V19.4661H67.7544V21.6138H69.8273V31.9531H72.1748V21.5639H74.2227V19.4161H72.1748V15.72Z" fill="black"/>
</svg>
