<svg width="96" height="48" viewBox="0 0 96 48" fill="none" xmlns="http://www.w3.org/2000/svg">
<path d="M19.1528 13.3965C16.6735 11.6083 13.6414 10.8913 10.6222 11.3794C7.60303 11.8675 4.95527 13.5002 3.16707 15.9794C1.37455 18.463 0.661866 21.4909 1.14995 24.5101C1.29249 25.3869 1.53005 26.2378 1.85832 27.0412C2.65739 28.9979 3.99206 30.6997 5.75 31.9695C8.22929 33.7577 11.2571 34.4748 14.2763 33.9867C20.5091 32.9803 24.7593 27.0887 23.7529 20.8559C23.2648 17.8367 21.6278 15.189 19.1486 13.4008L19.1528 13.3965ZM14.069 32.6736C11.3997 33.1055 8.72169 32.4706 6.52748 30.8897C4.33329 29.3088 2.89063 26.9635 2.4587 24.2984C1.5646 18.787 5.32239 13.5779 10.8339 12.6881C15.5678 11.9236 20.0772 14.5886 21.8222 18.8475C22.1072 19.5472 22.3189 20.2901 22.4442 21.0676C23.334 26.579 19.5761 31.7881 14.0647 32.6779L14.069 32.6736Z" fill="#35414D"/>
<path d="M38.2398 16.869L38.1793 16.8388L38.2355 16.8042C38.8704 16.3939 39.2376 15.6423 39.2376 14.7439C39.2376 13.2192 38.1404 12.1955 36.5034 12.1955H30.4261V22.0219H36.7583C38.4514 22.0219 39.6349 20.8816 39.6349 19.2446C39.6349 18.2253 39.1253 17.3614 38.2398 16.8733V16.869ZM32.331 13.9664H36.2097C37.1038 13.9664 37.4234 14.4977 37.4234 14.9987C37.4234 15.6985 36.9742 16.1131 36.2227 16.1131H32.331V13.9664ZM36.335 20.2424H32.331V17.8149H36.335C37.242 17.8149 37.648 18.4239 37.648 19.0286C37.648 19.7673 37.134 20.2424 36.335 20.2424Z" fill="#35414D"/>
<path d="M42.8097 17.8924C41.0172 18.1991 40.1835 18.9334 40.1835 20.2033C40.1835 21.2097 40.9696 22.229 42.4771 22.229C43.5353 22.229 43.9975 21.5638 44.1141 21.3565L44.1875 21.2269V22.0174H45.9455V17.4303C45.9455 15.8883 44.857 14.9639 43.03 14.9639C42.1272 14.9639 41.3238 15.2706 40.8185 15.8019C40.3952 16.2468 40.1879 16.8385 40.2138 17.521L41.9026 17.6981C41.8983 17.3266 42.002 17.0199 42.205 16.8083C42.408 16.5966 42.7103 16.4843 43.0775 16.4843C43.8377 16.4843 44.1789 16.9292 44.1789 17.3741V17.6462L42.814 17.8924H42.8097ZM44.1746 19.253C44.1746 20.0996 43.6476 20.6654 42.8615 20.6654C42.3302 20.6654 41.9717 20.3804 41.9717 19.9614C41.9717 19.3955 42.516 19.2098 43.0516 19.1018L44.1746 18.8945V19.253Z" fill="#35414D"/>
<path d="M48.9128 18.2768C48.9128 17.2748 49.4095 16.6528 50.2129 16.6528C50.9602 16.6528 51.3403 17.115 51.3403 18.022V22.0131H53.2408V17.6678C53.2408 15.9747 52.3553 14.9639 50.8738 14.9639C50.1136 14.9639 49.457 15.2317 48.9776 15.7457L48.9085 15.8192V15.1799H47.008V22.0217H48.9085V18.2855L48.9128 18.2768Z" fill="#35414D"/>
<path d="M56.2815 19.8882L56.7912 19.3785L56.8171 19.4131L58.7867 22.0176H61.0802L58.0913 18.0352L60.9075 15.1758H58.4584L56.2815 17.4003V12.1912H54.381V22.0176H56.2815V19.8882Z" fill="#35414D"/>
<path d="M37.3156 30.3454L32.8969 23.5468H30.4219V33.3732H32.3268L32.3397 26.2031L32.4131 26.3154L37.0132 33.3732H39.2161V23.5468H37.3156V30.3454Z" fill="#35414D"/>
<path d="M43.6347 26.3198C41.5571 26.3198 40.054 27.8574 40.054 29.9739C40.054 32.0904 41.5614 33.5849 43.6347 33.5849C45.708 33.5849 47.2025 32.0645 47.2025 29.9739C47.2025 27.8834 45.7037 26.3198 43.6347 26.3198ZM44.8268 31.2524C44.5202 31.585 44.0882 31.7664 43.6217 31.7664C42.6542 31.7664 41.9545 31.0105 41.9545 29.9739C41.9545 28.9373 42.6542 28.1512 43.6217 28.1512C44.0882 28.1512 44.5202 28.3369 44.8268 28.6738C45.1335 29.0064 45.302 29.4685 45.302 29.9739C45.302 30.4793 45.1335 30.9242 44.8268 31.2567V31.2524Z" fill="#35414D"/>
<path d="M51.634 26.32C50.9213 26.32 50.3295 26.5878 49.9235 27.0975L49.8544 27.1839V26.5316H47.9539V33.3734H49.8544V29.7193C49.8544 28.6611 50.2345 28.052 50.8997 28.052C51.4612 28.052 51.7463 28.4321 51.7463 29.1794C51.7463 29.2528 51.7463 29.3306 51.7376 29.4126L53.6036 29.1016C53.6036 28.0175 53.3833 27.2443 52.9384 26.7951C52.6231 26.4755 52.1825 26.3157 51.634 26.3157V26.32Z" fill="#35414D"/>
<path d="M62.1515 26.5311L60.9508 30.8116L59.7025 26.5311H58.0223L56.7438 30.8073L55.543 26.5311H53.6727L55.7719 33.3729H57.6508L58.8516 29.2955L60.0567 33.3729H61.9356L64.0348 26.5311H62.1515Z" fill="#35414D"/>
<path d="M67.5551 31.978C66.6178 31.978 65.9613 31.4252 65.7626 30.462L65.7539 30.4145H70.5743V29.6888C70.5743 27.6803 69.3217 26.3327 67.4601 26.3327C65.4429 26.3327 64.0349 27.8272 64.0349 29.9739C64.0349 32.1206 65.4732 33.5848 67.5335 33.5848C69.1619 33.5848 70.462 32.5914 70.7125 31.166L69.0193 30.8421C68.8466 31.5461 68.2937 31.9824 67.5594 31.9824L67.5551 31.978ZM65.8058 29.0798C66.052 28.3282 66.6696 27.879 67.4557 27.879C68.393 27.879 68.9114 28.488 68.9373 29.0927V29.1359H65.7885L65.8058 29.0841V29.0798Z" fill="#35414D"/>
<path d="M76.2671 27.2139L76.198 27.1447C75.7142 26.6437 75.0922 26.3932 74.345 26.3932C72.5914 26.3932 71.2135 27.9049 71.2135 29.8357C71.2135 31.7664 72.5698 33.1918 74.3709 33.2047C75.1095 33.2047 75.7272 32.9672 76.198 32.4964L76.2671 32.4273V33.2739C76.2671 34.4228 75.6408 35.1398 74.6301 35.1398C73.9217 35.1398 73.1658 34.7467 73.1486 33.6453L71.3301 33.9174C71.3128 34.656 71.5634 35.3126 72.0471 35.8179C72.6432 36.4356 73.5546 36.7725 74.6171 36.7725C76.7422 36.7725 78.1719 35.3255 78.1719 33.1745V26.5357H76.2714V27.2182L76.2671 27.2139ZM74.6992 31.4425C73.7662 31.4425 73.1183 30.7816 73.1183 29.8314C73.1183 28.8811 73.7705 28.1943 74.6992 28.1943C75.6278 28.1943 76.2671 28.8854 76.2671 29.8314C76.2671 30.7773 75.6235 31.4425 74.6992 31.4425Z" fill="#35414D"/>
<path d="M80.1848 23.2357C79.5498 23.2357 79.0358 23.7584 79.0358 24.3976C79.0358 25.0369 79.5498 25.5466 80.1848 25.5466C80.8197 25.5466 81.3467 25.0196 81.3467 24.3976C81.3467 23.7756 80.824 23.2357 80.1848 23.2357Z" fill="#35414D"/>
<path d="M81.135 26.5311H79.2345V33.3729H81.135V26.5311Z" fill="#35414D"/>
<path d="M84.8668 26.3198C83.9641 26.3198 83.1607 26.6264 82.6553 27.1577C82.232 27.6026 82.0247 28.1943 82.0506 28.8768L83.7395 29.0539C83.7352 28.6824 83.8388 28.3758 84.0418 28.1641C84.2448 27.9525 84.5472 27.8402 84.9143 27.8402C85.6745 27.8402 86.0158 28.2851 86.0158 28.7299V29.0021L84.6509 29.2483C82.8583 29.5549 82.0247 30.2892 82.0247 31.5591C82.0247 32.5655 82.8108 33.5849 84.3183 33.5849C85.3765 33.5849 85.8387 32.9197 85.9553 32.7124L86.0287 32.5828V33.3732H87.7867V28.7861C87.7867 27.2441 86.6982 26.3198 84.8711 26.3198H84.8668ZM86.0115 30.6088C86.0115 31.4554 85.4845 32.0213 84.6984 32.0213C84.1671 32.0213 83.8086 31.7362 83.8086 31.3172C83.8086 30.7514 84.3528 30.5657 84.8884 30.4577L86.0115 30.2503V30.6088Z" fill="#35414D"/>
<path d="M92.6372 26.3198C91.877 26.3198 91.2205 26.5876 90.741 27.1016L90.6719 27.175V26.5357H88.7714V33.3775H90.6719V29.6413C90.6719 28.6392 91.1686 28.0173 91.972 28.0173C92.7193 28.0173 93.0994 28.4794 93.0994 29.3865V33.3775H94.9999V29.0323C94.9999 27.3391 94.1144 26.3284 92.6329 26.3284L92.6372 26.3198Z" fill="#35414D"/>
<path d="M16.4748 15.8448L13.7618 19.5544L15.0309 20.4825L17.7439 16.773L16.4748 15.8448Z" fill="#35414D"/>
</svg>
