<svg width="96" height="48" viewBox="0 0 96 48" fill="none" xmlns="http://www.w3.org/2000/svg">
<g clip-path="url(#clip0_14155_86536)">
<path d="M0 31.3746H3.66071V16.8602L0 16.8606V31.3746Z" fill="#ED1C24"/>
<path d="M16.3244 25.4032L15.9239 26.1057C15.6385 26.5962 15.2462 27.016 14.7761 27.3339C14.306 27.6517 13.7702 27.8594 13.2087 27.9415C12.4432 28.0576 11.6604 27.9438 10.9596 27.6147C10.2587 27.2856 9.67131 26.7559 9.2717 26.0927C8.89597 25.4597 8.71057 24.7318 8.73767 23.9962C8.76461 23.4432 8.9061 22.9018 9.15317 22.4063C9.40024 21.9108 9.74751 21.4721 10.173 21.1178C10.6716 20.7513 11.2449 20.4993 11.8521 20.3798C12.7893 20.2056 13.7578 20.3746 14.5807 20.8558L16.3804 17.6927C16.3611 17.6455 16.3613 17.658 16.3255 17.6319C15.705 17.2289 15.0129 16.949 14.2867 16.8074C13.3317 16.5806 12.341 16.5461 11.3725 16.7061C10.4041 16.8661 9.47713 17.2173 8.6458 17.7393C7.14312 18.678 6.01515 20.1118 5.45646 21.7932C5.34314 22.2414 5.25599 22.6957 5.19545 23.154C4.9229 25.46 5.45858 27.2294 6.77917 28.904C7.63238 29.9998 8.79365 30.8155 10.1139 31.2465C11.8646 31.8754 14.2031 31.7737 15.8233 30.9348C17.3573 30.259 18.717 28.7775 19.4781 27.3054L20.9 24.7404L21.3151 24.0051L23.0545 27.1059L21.7751 27.1175L20.3516 29.7709L24.5374 29.7685C24.5374 29.7685 25.1591 30.8387 25.4578 31.376H29.6801L21.2948 16.34L16.3244 25.4032Z" fill="#ED1C24"/>
<path d="M37.7711 29.6877H35.2811V24.4998H37.7713C39.1204 24.4998 40.6556 25.2259 40.6556 27.0934C40.6556 28.961 39.1199 29.6877 37.7711 29.6877ZM35.2811 18.5647H37.7713C38.9748 18.5647 40.1369 19.291 40.1369 20.7437C40.1369 22.1755 38.9955 22.9022 37.7713 22.9022H35.2811V18.5647ZM40.22 23.5034C40.7728 23.2163 41.2346 22.7806 41.5535 22.2455C41.8723 21.7103 42.0356 21.0969 42.0249 20.474C42.0249 18.5857 40.5098 16.8632 37.8745 16.8632H33.5379C33.5123 16.8594 33.4862 16.8617 33.4616 16.8699C33.4371 16.8781 33.4148 16.8919 33.3966 16.9103C33.3782 16.9286 33.3643 16.9508 33.3561 16.9754C33.348 16.9999 33.3457 17.0261 33.3495 17.0517V31.2027C33.3454 31.2283 33.3475 31.2546 33.3556 31.2793C33.3636 31.304 33.3774 31.3265 33.3958 31.3448C33.4141 31.3632 33.4366 31.377 33.4613 31.385C33.486 31.3931 33.5123 31.3952 33.5379 31.3911H37.9588C40.9467 31.3911 42.5865 29.5233 42.5865 27.1782C42.5865 25.3938 41.6735 24.1076 40.221 23.5055" fill="#ED1C24"/>
<path d="M53.6542 20.495H52.7616C52.7125 20.4883 52.6626 20.4993 52.6207 20.526C52.5789 20.5526 52.5479 20.5932 52.5331 20.6406L52.16 21.5946C51.4957 20.8269 50.4585 20.3087 49.0269 20.3087C45.7895 20.3087 43.7563 22.9439 43.7563 25.9533C43.7563 28.9413 45.7485 31.5556 48.9859 31.5556C49.4014 31.5551 49.8144 31.4915 50.2109 31.3671C50.2536 31.3504 50.2924 31.3251 50.3249 31.2927C50.3573 31.2602 50.3827 31.2214 50.3993 31.1787L51.1042 29.5603C51.1666 29.4154 51.1042 29.3321 50.9378 29.4154C50.4066 29.641 49.8344 29.7542 49.2573 29.7478C47.0371 29.7478 45.6256 28.15 45.6256 25.9505C45.6256 23.751 47.0154 22.1107 49.0912 22.1107C51.0203 22.1107 51.976 23.3555 51.976 24.2683V31.2022C51.972 31.2279 51.9741 31.2541 51.9821 31.2788C51.9902 31.3036 52.0039 31.326 52.0223 31.3444C52.0407 31.3627 52.0631 31.3765 52.0878 31.3846C52.1125 31.3926 52.1388 31.3947 52.1644 31.3907H53.6586C53.6843 31.3947 53.7106 31.3926 53.7353 31.3846C53.76 31.3765 53.7824 31.3627 53.8008 31.3444C53.8192 31.326 53.8329 31.3036 53.841 31.2788C53.849 31.2541 53.8511 31.2279 53.8471 31.2022V20.6813C53.8509 20.6557 53.8486 20.6296 53.8404 20.605C53.8322 20.5805 53.8184 20.5582 53.8 20.54C53.7818 20.5216 53.7595 20.5077 53.7349 20.4996C53.7104 20.4914 53.6843 20.4891 53.6586 20.4929" fill="#ED1C24"/>
<path d="M60.8275 20.3079C59.3333 20.3079 58.1922 20.951 57.5074 22.0094V20.6813C57.5112 20.6557 57.5089 20.6296 57.5007 20.605C57.4925 20.5804 57.4787 20.5582 57.4603 20.54C57.4421 20.5216 57.4198 20.5077 57.3952 20.4995C57.3707 20.4913 57.3445 20.4891 57.3189 20.4928H55.9291C55.9035 20.4891 55.8774 20.4913 55.8528 20.4995C55.8282 20.5077 55.806 20.5216 55.7878 20.54C55.7694 20.5582 55.7555 20.5804 55.7473 20.605C55.7391 20.6296 55.7368 20.6557 55.7406 20.6813V31.2022C55.7366 31.2279 55.7387 31.2541 55.7468 31.2788C55.7548 31.3035 55.7686 31.326 55.7869 31.3443C55.8053 31.3627 55.8278 31.3765 55.8525 31.3845C55.8772 31.3926 55.9034 31.3947 55.9291 31.3907H57.4233C57.449 31.3947 57.4752 31.3926 57.4999 31.3845C57.5246 31.3765 57.5471 31.3627 57.5654 31.3443C57.5838 31.326 57.5976 31.3035 57.6056 31.2788C57.6137 31.2541 57.6158 31.2279 57.6117 31.2022V25.1842C57.6117 23.1507 58.9189 22.1135 60.4755 22.1135C62.011 22.1135 63.2552 23.1095 63.2552 25.2466V31.2022C63.2512 31.2279 63.2533 31.2541 63.2613 31.2788C63.2694 31.3035 63.2832 31.326 63.3015 31.3443C63.3199 31.3627 63.3424 31.3765 63.3671 31.3845C63.3918 31.3926 63.418 31.3947 63.4437 31.3907H64.9379C64.9636 31.3947 64.9898 31.3926 65.0145 31.3845C65.0392 31.3765 65.0617 31.3627 65.08 31.3443C65.0984 31.326 65.1122 31.3035 65.1202 31.2788C65.1283 31.2541 65.1304 31.2279 65.1263 31.2022V25.0398C65.1263 22.0716 63.4039 20.3082 60.8308 20.3082" fill="#ED1C24"/>
<path d="M70.7418 25.1844L75.0373 20.7232C75.1617 20.5986 75.12 20.4949 74.9547 20.4949H73.0868C73.0402 20.4917 72.9933 20.4994 72.9501 20.5174C72.9069 20.5354 72.8685 20.5632 72.8379 20.5986L68.8332 24.8734V17.0526C68.837 17.027 68.8347 17.0009 68.8265 16.9763C68.8183 16.9517 68.8045 16.9295 68.7861 16.9113C68.7679 16.8929 68.7456 16.879 68.7211 16.8708C68.6965 16.8626 68.6704 16.8604 68.6448 16.8641H67.1513C67.1257 16.8604 67.0995 16.8626 67.075 16.8708C67.0504 16.879 67.0281 16.8929 67.0099 16.9113C66.9915 16.9295 66.9777 16.9517 66.9695 16.9763C66.9613 17.0009 66.959 17.027 66.9628 17.0526V31.2022C66.9588 31.2278 66.9609 31.2541 66.9689 31.2788C66.977 31.3035 66.9907 31.326 67.0091 31.3443C67.0275 31.3627 67.0499 31.3765 67.0746 31.3845C67.0993 31.3926 67.1256 31.3947 67.1513 31.3906H68.6455C68.6711 31.3947 68.6974 31.3926 68.7221 31.3845C68.7468 31.3765 68.7692 31.3627 68.7876 31.3443C68.806 31.326 68.8197 31.3035 68.8278 31.2788C68.8358 31.2541 68.8379 31.2278 68.8339 31.2022V25.6192L73.1919 31.2846C73.2202 31.3174 73.2552 31.3437 73.2946 31.3616C73.334 31.3795 73.3769 31.3886 73.4202 31.3883H75.2241C75.389 31.3883 75.4312 31.2846 75.3488 31.1595L70.7404 25.1832" fill="#ED1C24"/>
<path d="M80.2401 20.2872C77.107 20.2872 75.0319 22.7978 75.0319 25.9526C75.0319 29.1275 77.2107 31.5967 80.4481 31.5967C81.8587 31.5967 83.0834 31.2434 84.0384 30.4557C84.0584 30.4429 84.0756 30.426 84.0887 30.4061C84.1018 30.3862 84.1106 30.3638 84.1145 30.3403C84.1184 30.3168 84.1172 30.2928 84.1112 30.2697C84.1051 30.2467 84.0943 30.2252 84.0794 30.2067L83.3962 29.0031C83.3338 28.899 83.2506 28.899 83.1465 28.9615C82.3936 29.4918 81.4943 29.7746 80.5734 29.7706C78.2283 29.7706 76.9004 28.1311 76.9004 25.9309C76.9004 23.7307 78.1254 22.0711 80.2413 22.0711C82.2125 22.0711 83.1672 23.3571 83.3543 25.08H78.7887C78.7427 25.0765 78.6969 25.0892 78.6591 25.1157C78.6214 25.1423 78.594 25.1811 78.5817 25.2256L78.0634 26.4505C78.001 26.5957 78.0634 26.6788 78.1878 26.6788H84.9736C85.0203 26.6808 85.0661 26.6646 85.1012 26.6337C85.1363 26.6027 85.1581 26.5594 85.162 26.5127C85.1952 26.2581 85.2087 26.0013 85.2023 25.7445C85.2023 22.7152 83.4384 20.2869 80.2424 20.2869" fill="#ED1C24"/>
<path d="M91.7028 20.3079C90.2086 20.3079 89.0675 20.951 88.3827 22.0094V20.6813C88.3865 20.6557 88.3842 20.6296 88.376 20.605C88.3678 20.5804 88.354 20.5582 88.3356 20.54C88.3174 20.5216 88.2951 20.5077 88.2705 20.4995C88.246 20.4913 88.2198 20.4891 88.1942 20.4928H86.8044C86.7788 20.4891 86.7527 20.4913 86.7281 20.4995C86.7035 20.5077 86.6813 20.5216 86.6631 20.54C86.6447 20.5582 86.6308 20.5804 86.6226 20.605C86.6144 20.6296 86.6122 20.6557 86.6159 20.6813V31.2022C86.6119 31.2279 86.614 31.2541 86.6221 31.2788C86.6301 31.3035 86.6439 31.326 86.6622 31.3443C86.6806 31.3627 86.7031 31.3765 86.7278 31.3845C86.7525 31.3926 86.7787 31.3947 86.8044 31.3907H88.2986C88.3243 31.3947 88.3505 31.3926 88.3752 31.3845C88.3999 31.3765 88.4224 31.3627 88.4407 31.3443C88.4591 31.326 88.4729 31.3035 88.4809 31.2788C88.489 31.2541 88.4911 31.2279 88.4871 31.2022V25.1842C88.4871 23.1507 89.7942 22.1135 91.3508 22.1135C92.8863 22.1135 94.1305 23.1095 94.1305 25.2466V31.2022C94.1265 31.2279 94.1286 31.2541 94.1367 31.2788C94.1447 31.3035 94.1585 31.326 94.1768 31.3443C94.1952 31.3627 94.2177 31.3765 94.2424 31.3845C94.2671 31.3926 94.2933 31.3947 94.319 31.3907H95.8099C95.8356 31.3947 95.8618 31.3926 95.8865 31.3845C95.9112 31.3765 95.9337 31.3627 95.952 31.3443C95.9704 31.326 95.9842 31.3035 95.9922 31.2788C96.0003 31.2541 96.0024 31.2279 95.9983 31.2022V25.0398C95.9983 22.0716 94.2759 20.3079 91.7028 20.3079Z" fill="#ED1C24"/>
</g>
<defs>
<clipPath id="clip0_14155_86536">
<rect width="96" height="48" fill="white"/>
</clipPath>
</defs>
</svg>
