<svg width="96" height="48" viewBox="0 0 96 48" fill="none" xmlns="http://www.w3.org/2000/svg">
<g clip-path="url(#clip0_25880_38870)">
<path d="M8.6543 12V18.5992H17.4689V35.7256H24.2V12H8.6543Z" fill="#005AA0"/>
<path d="M0 12V35.7256H15.5457V29.1264H6.73114V12H0Z" fill="#005AA0"/>
<path d="M15.5457 20.4844H8.6543V27.2407H15.5457V20.4844Z" fill="#E30613"/>
<path d="M34.8625 28.3672H33.9519V19.9246C33.9519 19.2071 33.983 19.1613 35.1198 18.8712V18.5964H30.5105V18.8712C31.6317 19.1614 31.6783 19.2224 31.6783 19.9246V27.8023C31.6783 28.5199 31.6472 28.5658 30.5105 28.8558V29.1306H38.4595L38.6465 25.7718H38.3663C37.2918 28.4283 36.4041 28.3672 34.8625 28.3672Z" fill="#005AA0"/>
<path d="M39.5248 18.6116V18.9319C40.6598 19.2214 40.6908 19.2672 40.6908 19.9837V27.8042C40.6908 28.5208 40.6598 28.5666 39.5248 28.8561V29.1306H44.1275V28.8561C43.0079 28.5666 42.9612 28.5056 42.9612 27.8042V24.3894H43.7698C44.8426 24.3742 45.278 24.481 45.6824 26.0206H46.0399C46.0244 25.2737 46.0089 24.6639 46.0089 23.9474C46.0089 23.1546 46.0244 22.6668 46.0399 21.9503H45.6824C45.278 23.4747 44.8893 23.6273 43.7698 23.6273H42.9612V19.3739H44.1118C46.0711 19.3739 46.3044 19.6788 47.3773 21.6606H47.6571L47.4395 18.5964L39.5248 18.6116Z" fill="#005AA0"/>
<path d="M61.2201 18.363H61.7496C62.1192 18.363 62.4192 18.6572 62.4192 19.0194V19.554C62.4192 19.9163 62.1192 20.2104 61.7496 20.2104H61.2201C60.8505 20.2104 60.5505 19.9161 60.5505 19.5537V19.0197C60.5505 18.6573 60.8505 18.363 61.2201 18.363Z" fill="#005AA0"/>
<path d="M91.9042 22.8258C91.9042 22.1845 92.4494 21.9098 93.1037 21.9098C94.0224 21.9098 94.6142 22.2304 95.2368 23.5739H95.5171L95.4082 21.3753C95.4082 21.3753 94.2403 21.1921 93.4147 21.1921C91.3123 21.1921 90.347 21.9554 90.347 23.5891C90.347 26.7955 94.3805 25.8488 94.3805 27.574C94.3805 28.2001 93.851 28.5665 93.1656 28.5665C92.1845 28.5665 91.344 28.1695 90.6274 26.6427H90.347L90.3936 28.9176C90.8141 29.0397 92.0914 29.284 93.0566 29.284C94.9723 29.284 96 28.368 96 26.8107C96 23.7419 91.9042 24.5205 91.9042 22.8258Z" fill="#005AA0"/>
<path d="M88.8864 27.8032V23.1923C88.8864 21.5586 87.6874 21.1922 86.675 21.1922C85.7558 21.1922 84.4325 21.6045 83.7317 22.2152V21.3449H80.6942V21.6197C81.8314 21.9098 81.8626 21.9556 81.8626 22.6732L81.863 27.7848C81.863 28.2055 81.8429 28.3797 81.5938 28.5624C81.3125 28.7691 81.0331 28.8146 80.8464 28.8146C80.4922 28.8146 80.1821 28.6537 80.0338 28.4884C79.8715 28.3072 79.8734 27.9482 79.8734 27.7573V23.5281C79.8734 22.0013 78.9854 21.1921 77.4437 21.1921C75.4037 21.1921 73.5816 21.7723 73.5816 23.2686C73.5816 23.9251 73.8778 24.2915 74.6563 24.2915C75.4349 24.2915 75.7464 23.8334 75.7464 23.2227C75.7464 22.6273 75.5285 22.4594 74.7341 22.3373V22.2914C74.7341 22.2914 75.5597 22.2456 76.1357 22.2456C77.5843 22.2456 77.6928 22.3067 77.6928 23.8335V25.0091H75.8088C74.0333 25.0091 73.3795 25.5741 73.3795 27.1772C73.3795 28.8261 73.9867 29.2841 75.4349 29.2841C76.3694 29.2841 77.3035 28.9788 77.8022 28.6734C78.0202 29.1314 78.5496 29.2841 79.3128 29.2841C79.811 29.2841 80.4101 29.1313 81.0427 29.1313L85.211 29.1315V28.8568C84.0898 28.5667 84.0432 28.5056 84.0432 27.8032V22.4442C84.635 22.3985 85.211 22.3526 85.7875 22.3526C86.6126 22.3526 86.7062 22.5359 86.7062 23.2992V27.8032C86.7062 28.5208 86.675 28.5667 85.5379 28.8568V29.1315H90.0542V28.8568C88.933 28.5667 88.8864 28.5056 88.8864 27.8032ZM77.6928 28.2306C77.3971 28.3222 77.0544 28.368 76.7429 28.368C75.9178 28.368 75.6528 28.1848 75.6528 27.1466C75.6528 25.7419 75.731 25.6351 77.6928 25.6198V28.2306Z" fill="#005AA0"/>
<path d="M71.9184 27.8031V23.1923C71.9184 21.5585 70.7194 21.1921 69.7071 21.1921C68.7883 21.1921 67.4645 21.6044 66.7637 22.2152V21.3448H63.7267V21.6196C64.8639 21.9098 64.8951 21.9555 64.8951 22.6731V27.8277C64.8951 28.1228 64.9061 28.4116 64.6882 28.5534C64.4938 28.6796 64.1938 28.8321 63.7666 28.8321C63.3879 28.8321 62.9549 28.6755 62.7922 28.4717C62.6698 28.3189 62.6842 28.0658 62.6842 27.8281V21.3451H59.82V21.7501C60.48 21.9444 60.504 22.0769 60.504 22.6734V27.8033C60.504 28.521 60.4728 28.5668 59.3357 28.8569V29.1317L68.2431 29.1314V28.8566C67.1218 28.5665 67.0752 28.5055 67.0752 27.8031V22.4441C67.6671 22.3984 68.2431 22.3525 68.8195 22.3525C69.6447 22.3525 69.7383 22.5357 69.7383 23.2991V27.8031C69.7383 28.5207 69.7071 28.5666 68.5704 28.8566V29.1314H73.0863V28.8566C71.965 28.5665 71.9184 28.5055 71.9184 27.8031Z" fill="#005AA0"/>
<path d="M51.1421 18.6116V18.9319C52.2773 19.2214 52.308 19.2672 52.308 19.9837V27.8042C52.308 28.5208 52.2773 28.5666 51.1421 28.8561V29.1306H55.7448V28.8561C54.625 28.5666 54.5784 28.5056 54.5784 27.8042V24.3894H55.3872C56.46 24.3742 56.8954 24.481 57.2995 26.0206H57.6571C57.6418 25.2737 57.6264 24.6639 57.6264 23.9474C57.6264 23.1546 57.6418 22.6668 57.6571 21.9503H57.2995C56.8954 23.4747 56.5066 23.6273 55.3872 23.6273H54.5784V19.3739H55.729C57.6077 19.3739 57.9 19.6553 58.8667 21.4256H59.2575L59.0568 18.5964L51.1421 18.6116Z" fill="#005AA0"/>
</g>
<defs>
<clipPath id="clip0_25880_38870">
<rect width="96" height="24" fill="white" transform="translate(0 12)"/>
</clipPath>
</defs>
</svg>
