<svg width="96" height="48" viewBox="0 0 96 48" fill="none" xmlns="http://www.w3.org/2000/svg">
<path d="M53.7204 37.1189H51.6305L49.5224 40.0108L47.4136 37.1162H45.3237L48.4751 41.45L45.3237 45.7743H47.4183L49.5224 42.8845L51.6264 45.7743H53.721L50.5697 41.45L53.7204 37.1189Z" fill="#09264E"/>
<path d="M83.5684 36.9713C83.9934 36.9552 84.4166 37.0345 84.807 37.2033C85.1974 37.3721 85.5451 37.6262 85.8245 37.9469C86.4719 38.7193 86.7969 39.7114 86.7319 40.7172V45.778H84.9866V41.005C84.9866 40.1192 84.438 38.63 82.9157 38.63C81.3934 38.63 80.8474 40.1165 80.838 41.005V45.778H79.0947V37.1476H80.4244L81.0609 38.0354C81.3676 37.6758 81.7539 37.3926 82.1892 37.2083C82.6244 37.0241 83.0967 36.9438 83.5684 36.974" fill="#09264E"/>
<path d="M73.2592 44.5213C73.8685 44.5308 74.4601 44.3161 74.9214 43.9179C75.1592 43.7105 75.3468 43.4519 75.4702 43.1616C75.5935 42.8712 75.6494 42.5566 75.6335 42.2415V41.7929L74.32 41.8976C72.6984 42.0228 71.8876 42.524 71.8876 43.401C71.8777 43.5615 71.9079 43.7219 71.9755 43.8678C72.0431 44.0138 72.1459 44.1406 72.2747 44.2368C72.5672 44.4365 72.9162 44.5365 73.27 44.5219M77.345 43.4868V45.7841H76.0139L75.541 45.1334C74.8374 45.6967 73.9552 45.9891 73.0545 45.9577C72.2903 45.993 71.5369 45.7679 70.9173 45.3192C70.6457 45.1043 70.4296 44.8274 70.287 44.5118C70.1444 44.1961 70.0795 43.8509 70.0977 43.505C70.0977 41.8032 71.3928 40.8478 73.9829 40.6388L75.6241 40.5179V40.3111C75.6513 39.7991 75.4956 39.294 75.1849 38.8861C75.0326 38.7097 74.8419 38.5704 74.6274 38.4791C74.413 38.3877 74.1805 38.3467 73.9477 38.3591C73.7176 38.3456 73.4873 38.3808 73.2717 38.4623C73.0561 38.5438 72.86 38.6698 72.6964 38.8321C72.4076 39.1357 72.223 39.5233 72.1693 39.9388H70.4801C70.5338 39.1188 70.9052 38.3521 71.5153 37.8017C72.1862 37.2275 73.0508 36.931 73.9329 36.9726C74.383 36.9532 74.8325 37.0234 75.2553 37.1791C75.6781 37.3349 76.0658 37.5732 76.3957 37.88C76.7232 38.2144 76.977 38.6138 77.1406 39.0523C77.3042 39.4908 77.3741 39.9588 77.3457 40.426L77.345 43.4868Z" fill="#09264E"/>
<path d="M1.74527 37.0361V45.7821H0V33.6929H1.71486L7.96216 42.4158V33.6929H9.70541V45.7827H8.09527L1.74527 37.0361Z" fill="#09264E"/>
<path d="M13.6089 43.5287C13.8516 43.793 14.1465 44.004 14.4749 44.1483C14.8034 44.2926 15.1582 44.3671 15.517 44.3671C15.8758 44.3671 16.2306 44.2926 16.5591 44.1483C16.8876 44.004 17.1825 43.793 17.4251 43.5287C17.9028 42.9482 18.164 42.2197 18.164 41.4679C18.164 40.7161 17.9028 39.9876 17.4251 39.4071C17.1882 39.1325 16.893 38.9142 16.561 38.768C16.2291 38.6217 15.8688 38.5513 15.5062 38.5618C15.1469 38.5503 14.7896 38.6197 14.4608 38.7648C14.1319 38.9099 13.8398 39.1271 13.6062 39.4003C13.1314 39.9833 12.8722 40.7121 12.8722 41.4639C12.8722 42.2157 13.1314 42.9445 13.6062 43.5274M15.5062 45.9544C14.9203 45.9693 14.3376 45.8636 13.7944 45.6438C13.2511 45.424 12.7588 45.0948 12.3481 44.6767C11.5359 43.8025 11.0845 42.6534 11.0845 41.4602C11.0845 40.2669 11.5359 39.1178 12.3481 38.2436C12.7597 37.8265 13.2527 37.4985 13.7965 37.28C14.3402 37.0614 14.9231 36.9571 15.5089 36.9733C16.3903 36.9976 17.2457 37.2769 17.9715 37.7774C18.6974 38.2778 19.2626 38.9781 19.5987 39.7932C19.9347 40.6083 20.0272 41.5034 19.865 42.37C19.7028 43.2366 19.2927 44.0377 18.6846 44.676C18.2707 45.0943 17.7752 45.4229 17.2289 45.6415C16.6825 45.86 16.0971 45.9638 15.5089 45.9463" fill="#09264E"/>
<path d="M26.3721 38.7246C26.0625 38.6039 25.7296 38.5551 25.3984 38.582C25.1103 38.5874 24.8264 38.6522 24.5645 38.7723C24.3025 38.8924 24.0682 39.0652 23.8761 39.28C23.6025 39.5913 23.3951 39.955 23.2666 40.349C23.1381 40.7431 23.0912 41.1592 23.1288 41.5719V45.782H21.3721V37.1476H22.7018L23.345 38.0428C23.7181 37.6274 24.1914 37.3145 24.7198 37.1341C25.2482 36.9537 25.8141 36.9118 26.3633 37.0124" fill="#09264E"/>
<path d="M29.4467 43.5401C29.6593 43.8005 29.9286 44.0088 30.234 44.1493C30.5394 44.2898 30.8728 44.3588 31.2088 44.3509C31.5406 44.3611 31.8703 44.2939 32.1715 44.1546C32.4728 44.0152 32.7375 43.8076 32.9447 43.5482C33.3771 42.9403 33.6095 42.2128 33.6095 41.4668C33.6095 40.7208 33.3771 39.9933 32.9447 39.3854C32.7375 39.126 32.4728 38.9184 32.1715 38.7791C31.8703 38.6397 31.5406 38.5725 31.2088 38.5827C30.872 38.5735 30.5375 38.6409 30.2306 38.78C29.9237 38.9191 29.6524 39.1261 29.4372 39.3854C28.9916 39.9864 28.751 40.7149 28.751 41.4631C28.751 42.2113 28.9916 42.9397 29.4372 43.5408M33.6001 33.4888H35.342V45.7861H34.0095L33.3663 44.8935C33.064 45.2432 32.687 45.5206 32.2632 45.7051C31.8394 45.8896 31.3796 45.9767 30.9176 45.9597C30.3854 45.9706 29.8574 45.8642 29.371 45.6479C28.8846 45.4316 28.4518 45.1108 28.1034 44.7084C27.3334 43.8093 26.9322 42.652 26.9805 41.4692C26.9316 40.2787 27.3471 39.1159 28.1392 38.2259C28.4993 37.8245 28.9418 37.5054 29.4364 37.2906C29.9311 37.0758 30.4663 36.9703 31.0055 36.9813C31.519 36.9341 32.0353 37.034 32.4941 37.2695C32.9529 37.505 33.3351 37.8663 33.596 38.3111L33.6001 33.4888Z" fill="#09264E"/>
<path d="M40.0776 44.5213C40.6869 44.5308 41.2784 44.316 41.7397 43.9179C41.9775 43.7105 42.1652 43.452 42.2885 43.1616C42.4119 42.8712 42.4677 42.5566 42.4519 42.2415V41.7929L41.1384 41.8976C39.5168 42.0228 38.706 42.524 38.706 43.401C38.6961 43.5615 38.7263 43.7219 38.7939 43.8678C38.8614 44.0138 38.9643 44.1406 39.0931 44.2368C39.3856 44.4364 39.7346 44.5364 40.0884 44.5219M44.1634 43.4868V45.7841H42.8323L42.3593 45.1334C41.6557 45.6967 40.7736 45.9891 39.8728 45.9578C39.1087 45.993 38.3552 45.7679 37.7357 45.3192C37.4641 45.1043 37.248 44.8274 37.1054 44.5118C36.9628 44.1961 36.8979 43.8509 36.9161 43.505C36.9161 41.8032 38.2111 40.8478 40.8012 40.6388L42.4424 40.5179V40.3111C42.4696 39.7991 42.314 39.294 42.0033 38.8861C41.8514 38.7097 41.6611 38.5704 41.4469 38.4791C41.2328 38.3877 41.0006 38.3467 40.7681 38.3591C40.5376 38.3454 40.3068 38.3804 40.0907 38.4619C39.8746 38.5434 39.6781 38.6695 39.5141 38.8321C39.2254 39.1357 39.0408 39.5233 38.987 39.9388H37.2918C37.3454 39.1189 37.7168 38.3521 38.3269 37.8017C38.9977 37.2275 39.8624 36.9309 40.7445 36.9726C41.1963 36.9522 41.6477 37.0221 42.0722 37.1782C42.4968 37.3344 42.8859 37.5737 43.2168 37.8821C43.5443 38.2165 43.798 38.6158 43.9617 39.0543C44.1253 39.4929 44.1952 39.9608 44.1668 40.428L44.1634 43.4868Z" fill="#09264E"/>
<path d="M64.6863 44.1936C65.308 44.2282 65.9231 44.0515 66.4316 43.6923C66.6419 43.527 66.8096 43.3138 66.9207 43.0705C67.0317 42.8271 67.083 42.5608 67.0701 42.2936C67.0789 42.0187 67.0268 41.7453 66.9175 41.4929C66.8083 41.2405 66.6447 41.0153 66.4384 40.8335C65.9615 40.441 65.3551 40.2412 64.7383 40.2733H62.3634V44.1923L64.6863 44.1936ZM62.3546 35.2862V38.7531H64.4917C65.0393 38.7886 65.5806 38.6201 66.0113 38.2801C66.1904 38.1152 66.3311 37.913 66.4235 37.6878C66.5158 37.4626 66.5576 37.2198 66.5458 36.9767C66.5593 36.7385 66.5155 36.5006 66.4181 36.2829C66.3206 36.0651 66.1723 35.8739 65.9856 35.7254C65.5699 35.4177 65.0612 35.2617 64.5444 35.2835L62.3546 35.2862ZM66.5863 39.3706C67.2806 39.5278 67.8969 39.9252 68.3266 40.4927C68.7564 41.0601 68.9718 41.7611 68.935 42.472C68.9649 42.9453 68.8782 43.4186 68.6824 43.8505C68.4865 44.2824 68.1877 44.6596 67.812 44.949C66.992 45.531 66.0026 45.8258 64.9978 45.7875H60.6113V33.6929H64.5654C65.5396 33.6469 66.5017 33.9231 67.3032 34.4787C67.685 34.7956 67.9787 35.2053 68.1564 35.6685C68.334 36.1317 68.3895 36.6329 68.3175 37.1237C68.2455 37.6145 68.0484 38.0786 67.7453 38.4713C67.4421 38.864 67.043 39.172 66.5863 39.3659V39.3706Z" fill="#09264E"/>
<path d="M95.9998 37.1474H93.7532L90.2505 40.8305V40.669V33.519H88.4863V45.7819H90.2485V43.1055L91.2958 42.0244L93.8843 45.7812H95.9998L92.5113 40.7589L95.9998 37.1474Z" fill="#09264E"/>
<path d="M35.3662 24.7939L44.0459 28.4628V20.5223L35.3662 8.59863V24.7939Z" fill="#69E3DB"/>
<path d="M44.0459 2.04004L35.3662 5.70896L51.9392 28.463L60.6189 24.7941L44.0459 2.04004Z" fill="#69E3DB"/>
<path d="M60.6197 5.71166L51.9399 2.04004V9.98126L60.6197 21.9049V5.71166Z" fill="#69E3DB"/>
</svg>
