<svg width="96" height="48" viewBox="0 0 96 48" fill="none" xmlns="http://www.w3.org/2000/svg">
<g clip-path="url(#clip0_26058_22963)">
<path d="M24.5002 22.6052V23.6155C30.6527 23.5706 35.716 18.9553 36.4517 13.0012H24.5002V22.6052Z" fill="#2D2274"/>
<path d="M23.9017 13.0012H11.9502V23.6155C18.1028 23.5706 23.166 18.9553 23.9017 13.0012Z" fill="#2D2274"/>
<path d="M0 34.8271H11.9516V24.2129C5.79898 24.2577 0.735752 28.873 0 34.8271Z" fill="#2D2274"/>
<path d="M12.5486 34.8271H24.5001V24.2129C18.3476 24.2577 13.2843 28.873 12.5486 34.8271Z" fill="#2D2274"/>
<path d="M71.5447 20.9625C72.6681 19.0004 73.5521 16.0851 74.0294 13.0015H76.4162V22.8119H75.0399V14.8658C74.3381 17.6684 73.5235 20.1491 72.12 22.8119H70.9273C69.5238 20.1491 68.6955 17.6684 67.9938 14.8658V22.8119H66.6175V13.0015H69.0043C69.5374 16.0851 70.4227 19.0004 71.5447 20.9625Z" fill="#2D2274"/>
<path d="M77.6089 19.295C77.6089 17.1089 78.9702 15.5813 80.9082 15.5813C82.8462 15.5813 84.179 17.1089 84.179 19.3371V19.6874H78.9852C78.9852 20.9624 79.827 21.8314 81.0347 21.8314C81.9187 21.8314 82.5783 21.3684 82.7755 20.6406L84.1518 20.7805C83.8852 22.1397 82.6776 23.0372 81.0782 23.0372C79.0151 23.0372 77.6116 21.5232 77.6116 19.295H77.6089ZM82.7891 18.5943C82.7891 17.5149 82.0166 16.7857 80.8946 16.7857C79.7726 16.7857 78.9852 17.5284 78.9852 18.5943H82.7891Z" fill="#2D2274"/>
<path d="M44.1465 20.9625C45.2698 19.0004 46.1538 16.0851 46.6312 13.0015H49.0179V22.8119H47.6416V14.8658C46.9399 17.6684 46.1252 20.1491 44.7217 22.8119H43.529C42.1255 20.1491 41.2973 17.6684 40.5955 14.8658V22.8119H39.2192V13.0015H41.606C42.1391 16.0851 43.0231 19.0004 44.1465 20.9625Z" fill="#2D2274"/>
<path d="M50.2106 19.295C50.2106 17.1089 51.572 15.5813 53.51 15.5813C55.4479 15.5813 56.7807 17.1089 56.7807 19.3371V19.6874H51.587C51.587 20.9624 52.4288 21.8314 53.6365 21.8314C54.5204 21.8314 55.18 21.3684 55.3772 20.6406L56.7535 20.7805C56.487 22.1397 55.2793 23.0372 53.68 23.0372C51.6169 23.0372 50.2134 21.5232 50.2134 19.295H50.2106ZM55.3908 18.5943C55.3908 17.5149 54.6184 16.7857 53.4964 16.7857C52.3744 16.7857 51.587 17.5284 51.587 18.5943H55.3908Z" fill="#2D2274"/>
<path d="M57.7341 19.3085C57.7341 17.1075 58.9839 15.5799 60.7804 15.5799C61.9174 15.5799 62.7878 16.1964 63.1672 17.2052V13H64.5014V22.8104H63.1672V21.3955C62.7878 22.4044 61.9174 23.0358 60.7804 23.0358C58.9839 23.0358 57.7341 21.5082 57.7341 19.3072V19.3085ZM61.1313 21.8314C62.339 21.8314 63.1523 20.8089 63.1523 19.3085C63.1523 17.8081 62.3376 16.7857 61.1313 16.7857C59.925 16.7857 59.1104 17.8081 59.1104 19.3085C59.1104 20.8089 59.925 21.8314 61.1313 21.8314Z" fill="#2D2274"/>
<path d="M86.7657 15.8053V17.5148C87.0186 16.4218 87.5518 15.8053 88.3242 15.8053H89.6162V17.0111H88.4657C87.3001 17.0111 86.767 17.8665 86.767 19.7159V22.8131H85.4329V15.8053H86.767H86.7657Z" fill="#2D2274"/>
<path d="M89.9507 20.8647C89.9507 19.5611 91.017 18.7478 93.0243 18.5523C94.1613 18.426 94.6672 18.1463 94.625 17.6276C94.5829 17.1089 94.0212 16.7871 93.1794 16.7871C92.1267 16.7871 91.4386 17.3058 91.4386 18.1042L90.133 17.9643C90.133 16.5902 91.4386 15.5813 93.2351 15.5813C95.0316 15.5813 96 16.5481 96 18.2019V22.8132H94.6658V21.4119C94.3013 22.4072 93.4445 23.0372 92.3212 23.0372C90.9449 23.0372 89.9494 22.1125 89.9494 20.8647H89.9507ZM92.6313 21.8314C93.8389 21.8314 94.6672 20.794 94.6672 19.2665V18.9582C94.387 19.2801 93.8525 19.4905 93.095 19.5611C91.9159 19.6738 91.3257 20.0798 91.3257 20.7669C91.3257 21.3969 91.8588 21.8314 92.6313 21.8314Z" fill="#2D2274"/>
<path d="M46.6733 27.6809C46.6733 28.7604 46.098 29.5453 45.214 29.7557C46.4353 29.9526 47.235 30.8488 47.235 32.0817C47.235 33.8333 46.0423 34.815 43.9084 34.815L39.2206 34.8286V25.0182L43.5154 25.0046C45.5935 25.0046 46.6733 25.8872 46.6733 27.6809ZM43.4447 29.237C44.7367 29.237 45.297 28.774 45.297 27.723C45.297 26.6721 44.7353 26.209 43.4447 26.209L40.5248 26.2226V29.2492L43.4447 29.2357V29.237ZM43.9084 33.6093C45.1583 33.6093 45.86 33.0349 45.86 32.026C45.86 31.0728 45.1719 30.4428 44.0077 30.4428L40.5262 30.4564V33.6242L43.9098 33.6106L43.9084 33.6093Z" fill="#2D2274"/>
<path d="M48.1122 32.88C48.1122 31.5765 49.1784 30.7632 51.1857 30.5676C52.3227 30.4414 52.8286 30.1616 52.7864 29.6429C52.7443 29.1242 52.1826 28.8024 51.3408 28.8024C50.2881 28.8024 49.6 29.3211 49.6 30.1195L48.2944 29.9797C48.2944 28.6056 49.6 27.5967 51.3965 27.5967C53.1931 27.5967 54.1614 28.5635 54.1614 30.2173V34.8285H52.8272V33.4272C52.4627 34.4225 51.606 35.0526 50.4826 35.0526C49.1063 35.0526 48.1108 34.1279 48.1108 32.88H48.1122ZM50.7927 33.8468C52.0004 33.8468 52.8286 32.8094 52.8286 31.2819V30.9736C52.5484 31.2954 52.014 31.5059 51.2564 31.5765C50.0773 31.6892 49.4871 32.0952 49.4871 32.7823C49.4871 33.4123 50.0202 33.8468 50.7927 33.8468Z" fill="#2D2274"/>
<path d="M58.9363 28.8024C57.7857 28.8024 57.0133 29.8398 57.0133 31.4231V34.8285H55.6791V27.8207H57.0133V29.0401C57.4199 28.1575 58.2767 27.5967 59.3293 27.5967C60.7464 27.5967 61.6168 28.6341 61.6168 30.3572V34.8285H60.2827V30.3857C60.2827 29.3904 59.7917 28.8024 58.9349 28.8024H58.9363Z" fill="#2D2274"/>
<path d="M64.5014 34.8287H63.1672V25.0183H64.5014V30.7647C66.0028 30.1618 66.7617 29.1529 67.3369 27.8209H68.7132C68.4045 28.8719 67.7585 29.9093 66.9031 30.7498L69.4014 34.8287H67.8293L65.8777 31.5495C65.4425 31.8157 64.9937 32.0397 64.5014 32.1796V34.8287Z" fill="#2D2274"/>
</g>
<defs>
<clipPath id="clip0_26058_22963">
<rect width="96" height="48" fill="white"/>
</clipPath>
</defs>
</svg>
