<svg width="96" height="48" viewBox="0 0 96 48" fill="none" xmlns="http://www.w3.org/2000/svg">
<path d="M2.37058 14.7597C2.35513 14.7751 2.34998 16.628 2.34998 23.8697C2.34998 32.8371 2.34998 32.9573 2.3826 32.9762C2.40493 32.9883 3.08839 32.9934 4.47593 32.9934C6.18288 32.9934 6.53835 32.99 6.55552 32.9711C6.56926 32.9539 6.57613 32.2584 6.57784 30.4416L6.58299 27.9361L8.51833 27.931L10.452 27.9275L10.6563 28.2212C10.7679 28.3826 10.8933 28.5646 10.9362 28.6247C11.053 28.7896 11.0925 28.848 11.5544 29.516C12.0353 30.2115 12.0576 30.2441 12.1692 30.4038C12.2465 30.5154 12.535 30.9327 12.8115 31.3328C12.8853 31.4393 13.0038 31.6093 13.0759 31.7141C13.1996 31.8909 13.5756 32.437 13.7044 32.6208C13.7353 32.6671 13.7954 32.753 13.8384 32.8131C13.8813 32.8732 13.9242 32.9367 13.9345 32.9539C13.9534 32.9831 14.0479 32.9848 16.2099 32.9848C18.2757 32.9848 18.4664 32.9831 18.4715 32.9573C18.4767 32.9333 18.4234 32.8526 18.1641 32.4868C18.0954 32.3889 17.3038 31.2556 17.1716 31.0649C17.0376 30.8726 16.9517 30.749 16.8092 30.5463C16.7491 30.4605 16.6684 30.3454 16.6289 30.2887C16.5138 30.1239 16.3868 29.9401 16.27 29.7736C16.2099 29.6877 16.0468 29.4524 15.9059 29.2498C15.7634 29.0472 15.6174 28.8377 15.5814 28.7861C15.5127 28.6883 15.1109 28.113 14.9632 27.9018C14.9185 27.8348 14.7846 27.6459 14.6678 27.4793C14.5527 27.3127 14.4566 27.1633 14.4566 27.1479C14.4566 27.129 14.4909 27.1032 14.5562 27.0758C14.8464 26.9487 15.3942 26.6396 15.6415 26.4627C16.215 26.0523 16.6238 25.6556 17.0256 25.1198C17.5493 24.4226 17.9168 23.5451 18.0697 22.6212C18.1555 22.1043 18.1555 22.0906 18.1555 21.3676C18.1538 20.7374 18.1504 20.6498 18.116 20.4231C18.0645 20.0814 18.0285 19.8753 18.0113 19.8049C18.0027 19.7723 17.9787 19.6744 17.9581 19.5903C17.9254 19.4495 17.7829 18.9995 17.74 18.8948C17.7297 18.8708 17.7056 18.8089 17.685 18.7574C17.6283 18.6166 17.4103 18.1839 17.3158 18.0276C16.8624 17.2754 16.203 16.5937 15.4612 16.1094C15.0937 15.8707 14.5339 15.5788 14.1646 15.4345C14.0754 15.4002 13.9826 15.3641 13.9586 15.3538C13.8057 15.292 13.1377 15.0877 12.9591 15.0482C12.9179 15.0396 12.8115 15.0172 12.7222 14.9966C12.6329 14.9777 12.5367 14.9571 12.5075 14.952C12.48 14.9468 12.3942 14.9331 12.3186 14.9194C11.9425 14.8541 11.5613 14.8095 11.0478 14.77C10.6374 14.739 2.40149 14.7287 2.37058 14.7597ZM10.9276 18.256C11.4857 18.3436 11.8343 18.4346 12.1297 18.5685C12.1486 18.5771 12.1932 18.596 12.2293 18.6097C12.3444 18.6561 12.6311 18.8244 12.772 18.9291C13.4348 19.4203 13.7817 20.0883 13.8727 21.0482C13.9174 21.5239 13.8573 22.0734 13.713 22.5044C13.385 23.4816 12.5882 24.1393 11.4171 24.4003C11.1784 24.4535 11.0186 24.4793 10.7044 24.5102C10.4039 24.5411 10.2253 24.5428 8.50288 24.5445C7.47253 24.5445 6.61734 24.5394 6.60188 24.5342C6.57613 24.5239 6.57441 24.2303 6.57441 21.3762C6.57441 18.8742 6.57956 18.2268 6.59673 18.2182C6.60704 18.213 7.53779 18.2113 8.66087 18.2148C10.622 18.2199 10.713 18.2216 10.9276 18.256Z" fill="black"/>
<path d="M27.482 18.7677C26.771 18.8072 26.4018 18.8502 25.9965 18.9377C25.9347 18.9498 25.8574 18.9669 25.8248 18.9721C25.7922 18.979 25.7424 18.991 25.7132 18.9996C25.6857 19.0064 25.5621 19.0425 25.4384 19.0768C25.3165 19.1095 25.1894 19.149 25.1585 19.1627C25.1276 19.1764 25.0916 19.1867 25.0778 19.1867C25.0641 19.1867 25.028 19.197 24.9971 19.2108C24.9662 19.2245 24.9095 19.2468 24.8717 19.2606C24.6124 19.3585 24.2621 19.5165 24.0045 19.6521C23.9135 19.7002 23.4808 19.9612 23.3863 20.0248C22.5552 20.5932 21.8322 21.3917 21.348 22.2778C21.2724 22.4152 21.1951 22.5611 21.1762 22.6041C21.1556 22.647 21.1161 22.7311 21.0886 22.793C20.9289 23.1399 20.7435 23.6997 20.649 24.1152C20.5803 24.4226 20.5477 24.6236 20.491 25.0769C20.4481 25.4135 20.4515 26.3545 20.4945 26.8027L20.5271 27.129L25.8076 27.1376L31.0882 27.1462L31.0848 27.2269C31.0848 27.2716 31.071 27.342 31.0573 27.3815C31.0435 27.4227 31.0178 27.4982 31.0023 27.5497C30.8718 27.9447 30.6262 28.3551 30.2965 28.7295C30.1952 28.8446 29.8415 29.1365 29.6766 29.243C29.3624 29.4439 28.9382 29.6431 28.6583 29.7204C28.0469 29.8886 27.767 29.9264 27.1042 29.9264C26.6182 29.9264 26.4224 29.911 26.0309 29.8406C25.763 29.7925 25.3612 29.6843 25.2324 29.6276C25.2135 29.619 25.1225 29.5813 25.0315 29.5418C24.6004 29.3614 24.1316 29.0558 23.7195 28.6866C23.6645 28.6368 23.6113 28.5973 23.601 28.5973C23.589 28.5973 23.5082 28.6763 23.4207 28.7724C23.3314 28.8703 23.1665 29.0489 23.0515 29.1725C22.9364 29.2945 22.7235 29.5263 22.5775 29.6843C22.2031 30.093 21.7721 30.5601 21.5952 30.7507C21.4785 30.8761 21.4458 30.9224 21.4544 30.9482C21.4596 30.9671 21.6073 31.1199 21.7807 31.2899C22.1774 31.6797 22.593 31.994 23.0257 32.2361C23.1906 32.3289 23.6044 32.5298 23.7384 32.5813C23.795 32.6036 23.8483 32.6294 23.8586 32.6362C23.8672 32.6431 23.8843 32.65 23.8981 32.65C23.9118 32.65 23.9461 32.6603 23.9753 32.674C24.0973 32.7307 24.5283 32.8664 24.743 32.9162C25.2684 33.0415 25.5861 33.0947 26.1597 33.1583C26.4963 33.1961 27.573 33.2115 27.9302 33.184C28.5295 33.1377 29.0206 33.0724 29.4018 32.9866C29.4654 32.9711 29.565 32.9488 29.6251 32.935C29.7419 32.9093 29.8003 32.8938 30.0578 32.8183C30.3738 32.7255 30.7379 32.595 30.9508 32.4954C31.0075 32.4697 31.0727 32.4422 31.0968 32.4353C31.1569 32.4164 31.6995 32.1365 31.8592 32.0421C33.0321 31.3432 33.9131 30.4072 34.4986 29.2327C34.6017 29.0249 34.6858 28.8394 34.6858 28.8154C34.6858 28.8033 34.6927 28.7862 34.6996 28.7759C34.727 28.7467 34.849 28.3998 34.9417 28.0907C35.0035 27.8863 35.1151 27.3832 35.1151 27.3128C35.1151 27.2853 35.122 27.2406 35.1323 27.2132C35.1564 27.1393 35.201 26.6757 35.2182 26.3099C35.2439 25.7587 35.1873 24.9584 35.0877 24.4845C35.043 24.2732 34.9932 24.0569 34.9675 23.9693C34.8885 23.6945 34.8438 23.5554 34.7889 23.4112C34.7683 23.3597 34.7459 23.2978 34.7373 23.2738C34.7253 23.236 34.6996 23.169 34.6532 23.0591C34.6034 22.9389 34.3407 22.4169 34.2703 22.3001C33.525 21.0379 32.4276 20.0505 31.1139 19.4632C30.8804 19.3585 30.834 19.3396 30.6245 19.2606C30.5868 19.2468 30.5301 19.2245 30.4992 19.2108C30.4683 19.197 30.4322 19.1867 30.4185 19.1867C30.4047 19.1867 30.3687 19.1764 30.3377 19.1627C30.2193 19.1129 29.7848 18.9944 29.5512 18.948C29.4516 18.9274 29.3366 18.9034 29.2937 18.8948C29.2507 18.8845 29.158 18.8708 29.0876 18.8605C29.0172 18.8519 28.9056 18.8381 28.8386 18.8278C28.7321 18.8124 28.6566 18.8055 28.3406 18.7832C28.186 18.7729 27.5884 18.7609 27.482 18.7677ZM28.4007 21.8983C28.4522 21.9103 28.5638 21.9343 28.648 21.9532C29.4997 22.1421 30.2759 22.6951 30.7052 23.4198C30.7791 23.5451 30.9079 23.7993 30.9268 23.8577C30.9336 23.8817 30.956 23.9435 30.9766 23.995C31.0281 24.1273 31.1122 24.4192 31.1139 24.4707C31.1139 24.5033 24.3686 24.5033 24.3549 24.4707C24.3446 24.4432 24.4167 24.1925 24.4957 23.9779C24.6914 23.4524 25.0469 22.9544 25.4728 22.6109C25.5947 22.5113 25.8678 22.3259 25.9828 22.2641C26.2953 22.0958 26.7058 21.9584 27.0784 21.9C27.1488 21.888 27.2158 21.876 27.2244 21.8725C27.2725 21.8553 28.3148 21.8794 28.4007 21.8983Z" fill="black"/>
<path d="M44.0448 18.7627C44.0397 18.7679 43.8851 18.7764 43.7014 18.7816C43.1725 18.7988 42.9801 18.8159 42.4821 18.8881C42.0545 18.9516 41.469 19.0855 41.1856 19.1869C41.1289 19.2075 41.0602 19.2298 41.0311 19.2384C40.9624 19.2573 40.6962 19.3534 40.6533 19.374C40.6344 19.3843 40.5811 19.4067 40.5331 19.4273C40.0849 19.6162 39.6435 19.8738 39.276 20.1588C39.118 20.2825 38.8175 20.5744 38.6509 20.7667C38.3264 21.1428 38.0585 21.6511 37.8799 22.235C37.8507 22.3311 37.7958 22.6299 37.7666 22.8515C37.7202 23.219 37.746 23.82 37.8301 24.2527C37.9246 24.7439 38.1306 25.2161 38.4054 25.5664C38.6939 25.9374 39.1902 26.3461 39.6521 26.5934C39.7156 26.6277 39.7809 26.6638 39.7981 26.6723C39.8874 26.7239 40.2961 26.8922 40.3957 26.9196C40.4146 26.9248 40.485 26.9454 40.5502 26.966C40.77 27.0313 41.2989 27.1686 41.5119 27.2133C41.5874 27.2305 41.6956 27.2528 41.7523 27.2665C41.9601 27.3129 42.2623 27.373 42.4049 27.3953C42.4529 27.4022 42.58 27.4262 42.6882 27.4451C42.7964 27.4657 42.9132 27.4863 42.9458 27.4915C42.9784 27.4966 43.0797 27.5121 43.169 27.5258C43.2583 27.5396 43.4489 27.5653 43.5898 27.5842C43.7323 27.6031 43.9143 27.6306 43.9985 27.6443C44.0809 27.6581 44.22 27.6821 44.3076 27.6975C44.5016 27.7302 44.6922 27.768 44.8176 27.7989C45.0855 27.8641 45.1507 27.883 45.3328 27.9397C45.7981 28.0856 46.0454 28.2694 46.1588 28.5579C46.2429 28.7708 46.2171 29.0834 46.1004 29.31C45.9973 29.5075 45.7226 29.7394 45.4701 29.8407C45.4272 29.8578 45.3774 29.8785 45.3585 29.887C45.1748 29.9678 44.7094 30.0588 44.2852 30.0931C43.2927 30.1773 42.0734 30.0433 41.0139 29.7325C40.9864 29.7239 40.904 29.6999 40.8336 29.6793C40.7632 29.6586 40.6773 29.6329 40.6447 29.6209C40.5296 29.5779 40.4644 29.5556 40.4128 29.5419C40.3854 29.535 40.3424 29.5213 40.3184 29.511C40.2944 29.5007 40.2068 29.4646 40.1209 29.432C39.9148 29.353 39.5886 29.2122 39.4581 29.1469C39.3035 29.0679 39.0408 28.9254 38.9257 28.8567C38.8484 28.8086 38.7763 28.776 38.7677 28.7811C38.754 28.7897 38.6887 28.9219 38.5273 29.2671C38.4208 29.4972 38.3453 29.6621 38.2938 29.7737C38.2628 29.839 38.2234 29.9248 38.2062 29.9626C38.189 30.0004 38.1238 30.1378 38.0619 30.27C38.0001 30.4005 37.9486 30.5121 37.9486 30.5156C37.9486 30.519 37.9125 30.598 37.8696 30.689C37.7236 30.9981 37.703 31.0445 37.5588 31.3536C37.4798 31.5236 37.4197 31.6713 37.4231 31.6833C37.4317 31.7039 37.6584 31.8602 37.6807 31.8602C37.6859 31.8602 37.7202 31.879 37.7563 31.8997C37.8748 31.9752 38.2491 32.1572 38.4638 32.2465C38.5256 32.2706 38.5994 32.3015 38.6269 32.3135C38.6561 32.3273 38.7488 32.3616 38.833 32.3925C38.9188 32.4217 39.0064 32.4543 39.027 32.4629C39.0803 32.4835 39.2279 32.5316 39.3911 32.5814C39.4615 32.602 39.5542 32.6312 39.5972 32.6449C39.7294 32.6879 40.3321 32.8441 40.5159 32.8819C40.7048 32.9231 40.9555 32.9729 41.0311 32.9832C41.0688 32.9901 41.1341 33.0021 41.177 33.0107C41.3659 33.0502 41.9069 33.1189 42.3447 33.1601C42.805 33.2048 44.1805 33.2048 44.6115 33.1601C45.3396 33.0863 45.8857 32.9935 46.3202 32.8733C46.3957 32.8527 46.4816 32.8287 46.5091 32.8218C46.6447 32.7875 47.1204 32.6209 47.2492 32.5625C47.287 32.5436 47.3248 32.5299 47.3316 32.5299C47.3574 32.5299 47.8794 32.2689 48.0271 32.1813C48.6505 31.8155 49.1605 31.3416 49.5091 30.8041C49.6036 30.6581 49.7392 30.4142 49.7564 30.3627C49.7615 30.3404 49.7736 30.3146 49.7804 30.306C49.7959 30.2889 49.8131 30.2425 49.9041 29.9884C50.0638 29.5419 50.1256 29.0301 50.0913 28.436C50.0312 27.3696 49.7049 26.6655 48.9854 26.0438C48.5475 25.6626 48.1937 25.4514 47.6596 25.2453C47.512 25.1869 47.0054 25.041 46.7581 24.9826C46.7066 24.9706 46.6138 24.9482 46.552 24.9345C46.0592 24.8177 45.6007 24.7233 45.0752 24.6305C44.967 24.6117 44.8433 24.5893 44.8004 24.579C44.7575 24.5704 44.6888 24.5584 44.6459 24.5533C44.4346 24.5258 43.8199 24.4193 43.5125 24.3558C42.7243 24.1978 42.2984 24.0621 42.0356 23.8904C41.8708 23.7822 41.7626 23.6448 41.6905 23.4542C41.6338 23.3065 41.6321 23.0009 41.687 22.8583C41.7386 22.7278 41.7523 22.7021 41.8588 22.5681C42.0047 22.3827 42.3001 22.1835 42.5852 22.0804C42.7294 22.0272 43.1089 21.9345 43.2549 21.9156C43.3356 21.9053 43.4507 21.8898 43.5125 21.8812C43.5743 21.8744 43.9023 21.8658 44.2423 21.8658C44.8846 21.8658 45.1061 21.8795 45.5732 21.9533C46.0145 22.022 46.6104 22.1714 46.9642 22.3019C47.0071 22.3174 47.0878 22.3466 47.1445 22.3655C47.2011 22.3861 47.2818 22.417 47.3248 22.4342C47.3677 22.4531 47.4175 22.4754 47.4364 22.484C47.6356 22.5698 47.8365 22.6643 48.0254 22.7622C48.1508 22.8257 48.2607 22.8789 48.2693 22.8789C48.2796 22.8789 48.3156 22.8154 48.3534 22.7364C48.3895 22.6591 48.453 22.5252 48.4925 22.441C48.5835 22.247 48.678 22.0478 48.7501 21.8915C48.781 21.8246 48.8514 21.6752 48.9064 21.5584C48.963 21.4433 49.0077 21.3454 49.0077 21.342C49.0077 21.3386 49.0523 21.2407 49.109 21.1256C49.1639 21.0089 49.2344 20.8577 49.2653 20.7925C49.3202 20.6723 49.3528 20.6036 49.5297 20.2275C49.583 20.1159 49.6259 20.018 49.6259 20.0094C49.6259 19.9751 49.5005 19.903 49.0918 19.702C49.0626 19.6866 48.7535 19.5561 48.6041 19.4977C48.4479 19.4324 48.0254 19.3002 47.694 19.2109C47.6373 19.1954 47.5566 19.1731 47.5137 19.1611C47.4707 19.1491 47.4141 19.1336 47.3849 19.1285C47.3574 19.1233 47.2595 19.1044 47.1702 19.0838C47.0294 19.0529 46.8302 19.0134 46.4747 18.9464C46.3975 18.9327 46.1279 18.8949 45.7243 18.8451C45.5938 18.828 45.3122 18.8073 44.9292 18.785C44.6802 18.7696 44.0534 18.7541 44.0448 18.7627Z" fill="black"/>
<path d="M78.9909 18.7626C78.9857 18.766 78.8707 18.7746 78.7333 18.7815C78.4551 18.7935 78.3521 18.8021 78.1752 18.8278C78.1099 18.8364 77.9966 18.8519 77.9262 18.8622C77.7768 18.8811 77.7339 18.8896 77.3853 18.9738C77.1517 19.0305 76.7653 19.1507 76.5438 19.2348C76.1162 19.3979 75.7436 19.6126 75.3246 19.9354C75.1288 20.0848 74.6754 20.5262 74.569 20.667C74.4728 20.7992 74.4745 20.813 74.4745 19.865C74.4745 19.027 74.4728 18.9978 74.4419 18.9807C74.3904 18.9532 70.6244 18.9566 70.597 18.9841C70.5678 19.0133 70.5678 32.9436 70.597 32.9728C70.6124 32.9883 71.0829 32.9934 72.6113 32.9934C73.7069 32.9934 74.6119 32.9865 74.6239 32.9797C74.6394 32.9694 74.6462 32.1382 74.6514 29.2927C74.6565 25.3156 74.6514 25.5869 74.7424 25.1628C74.8901 24.481 75.182 23.9315 75.6577 23.4404C75.7676 23.327 76.1025 23.0505 76.1299 23.0505C76.1351 23.0505 76.1712 23.0282 76.2124 23.0007C76.3051 22.9389 76.6417 22.7758 76.6777 22.7758C76.6932 22.7758 76.7087 22.7689 76.7138 22.7603C76.719 22.7535 76.7791 22.7294 76.8478 22.7071C76.9164 22.6865 77.004 22.659 77.0418 22.647C77.3217 22.5577 77.7682 22.4941 78.2542 22.4735C78.5616 22.4598 78.5375 22.4735 78.6045 22.2709C78.6268 22.2039 78.6629 22.106 78.6818 22.0545C78.7024 22.003 78.7264 21.936 78.735 21.9086C78.7436 21.8794 78.7573 21.8416 78.7659 21.8227C78.7745 21.8038 78.8209 21.6767 78.8707 21.5394C78.9737 21.2509 79.0029 21.1736 79.0355 21.0963C79.0493 21.0654 79.0596 21.0328 79.0596 21.0225C79.0596 21.0122 79.0699 20.9795 79.0836 20.9503C79.0974 20.9194 79.1317 20.825 79.1626 20.7408C79.1918 20.655 79.2261 20.5588 79.2399 20.5262C79.2519 20.4936 79.3017 20.3545 79.3515 20.2171C79.4494 19.944 79.4717 19.8822 79.5112 19.7792C79.5267 19.7414 79.5851 19.5783 79.6434 19.4186C79.7018 19.2571 79.7705 19.0648 79.7997 18.9875C79.8684 18.8003 79.8667 18.7986 79.7602 18.7866C79.6314 18.7711 79.0012 18.7523 78.9909 18.7626Z" fill="black"/>
<path d="M87.3023 18.7747C86.6721 18.8039 86.4798 18.8211 85.9715 18.8966C85.7431 18.931 85.7173 18.9361 85.4219 18.9997C84.62 19.1748 83.8335 19.4857 83.241 19.8635C82.7053 20.2035 82.233 20.6585 81.9188 21.1359C81.8123 21.2991 81.62 21.658 81.5736 21.7833C81.4448 22.1371 81.3864 22.3449 81.3332 22.6643C81.3091 22.8 81.304 22.9408 81.304 23.3426C81.304 23.9488 81.3297 24.1531 81.4688 24.6391C81.5324 24.8607 81.6904 25.1955 81.838 25.4188C82.0613 25.7536 82.5335 26.1898 82.9749 26.4646C83.1363 26.5659 83.4402 26.7273 83.5519 26.7719C83.9348 26.9248 83.9949 26.9437 84.3658 27.0433C84.4277 27.0587 84.517 27.0828 84.5633 27.0965C84.7419 27.1463 85.209 27.2511 85.5387 27.3163C85.6057 27.3301 85.7207 27.3524 85.7912 27.3661C85.9612 27.4005 86.1707 27.4382 86.3922 27.4726C86.4918 27.488 86.6343 27.5121 86.7099 27.5241C86.7854 27.5378 86.8868 27.5533 86.9331 27.5584C86.9812 27.5636 87.0928 27.5791 87.1821 27.5928C87.2714 27.6065 87.4311 27.6289 87.5342 27.6443C87.9446 27.7027 88.4237 27.804 88.7963 27.9139C89.3201 28.0668 89.5966 28.2677 89.7065 28.5733C89.758 28.7176 89.7563 29.0061 89.703 29.1641C89.6172 29.4268 89.4146 29.6432 89.1089 29.7977C88.5181 30.0983 87.256 30.203 86.0831 30.0467C85.7568 30.0038 85.3189 29.9283 85.1558 29.8853C85.1231 29.8767 85.027 29.8527 84.9411 29.8338C84.857 29.8132 84.7642 29.7892 84.735 29.7823C84.7076 29.7737 84.6251 29.7497 84.5547 29.7291C84.3779 29.6793 84.0378 29.5711 83.8816 29.5144C83.6824 29.4423 83.3922 29.3255 83.2067 29.2414C83.1002 29.195 82.707 28.9958 82.6486 28.9614C82.616 28.9408 82.5576 28.9082 82.5198 28.8876C82.482 28.867 82.4322 28.8361 82.4099 28.8189C82.3309 28.7571 82.3 28.7743 82.2313 28.9185C82.0372 29.3307 81.9617 29.4938 81.9617 29.5007C81.9617 29.5041 81.9119 29.6123 81.8501 29.7394C81.7882 29.8681 81.7384 29.9763 81.7384 29.9798C81.7384 29.9849 81.6921 30.0845 81.6354 30.2047C81.5787 30.3232 81.5324 30.4228 81.5324 30.4263C81.5324 30.428 81.4809 30.5379 81.419 30.6684C81.3074 30.9054 81.292 30.9397 81.1924 31.1561C81.1632 31.2179 81.1048 31.345 81.0601 31.4394C80.9416 31.6902 80.9416 31.6919 81.1288 31.8052C81.6114 32.1006 82.3223 32.3994 83.0779 32.6261C83.1294 32.6415 83.2067 32.6655 83.2496 32.6776C83.4214 32.7308 83.8352 32.8338 84.1426 32.8991C84.2044 32.9128 84.3057 32.9352 84.3693 32.9506C84.4328 32.9644 84.5015 32.9764 84.5238 32.9764C84.5462 32.9764 84.6131 32.9867 84.6749 33.0004C84.8879 33.0468 85.3447 33.1069 85.8856 33.1601C86.3321 33.2048 87.6853 33.2048 88.1524 33.1601C89.2806 33.0536 90.0637 32.8699 90.9154 32.5093C91.5405 32.2465 92.066 31.9031 92.4987 31.4738C92.7821 31.1939 93.0139 30.8985 93.1513 30.6409C93.1753 30.598 93.2114 30.531 93.2337 30.4915C93.3419 30.2992 93.4913 29.8785 93.5686 29.5539C93.6064 29.389 93.639 29.013 93.639 28.7176C93.639 27.8006 93.4398 27.1154 93.0019 26.5367C92.8989 26.3993 92.5812 26.0782 92.4112 25.9408C91.9509 25.5647 91.4632 25.3106 90.8656 25.1354C90.4689 25.0186 89.7632 24.8503 89.26 24.7525C89.1604 24.7319 89.0144 24.7044 88.9337 24.6889C88.853 24.6752 88.7294 24.6511 88.659 24.6374C88.458 24.6013 88.2571 24.567 88.015 24.5275C87.687 24.476 87.2714 24.4021 87.0791 24.3626C86.375 24.215 85.9371 24.0913 85.7139 23.9746C85.3601 23.7891 85.1815 23.5057 85.185 23.1365C85.185 22.9184 85.2691 22.7089 85.4219 22.5406C85.6761 22.259 86.0556 22.065 86.5553 21.9619C86.9949 21.8709 87.134 21.8623 87.8965 21.8709C88.2915 21.8744 88.6555 21.8864 88.7277 21.8984C88.7981 21.9087 88.9457 21.9293 89.0539 21.9448C89.3235 21.9825 89.7683 22.077 89.9898 22.1422C90.0568 22.1611 90.1375 22.1835 90.1701 22.192C90.3058 22.2247 90.857 22.4256 91.0202 22.5012C91.058 22.5183 91.1438 22.5578 91.2091 22.587C91.41 22.6797 91.5645 22.7553 91.6796 22.8188C91.7397 22.8515 91.7981 22.8789 91.8084 22.8789C91.8204 22.8789 91.853 22.8274 91.884 22.7622C91.9131 22.6986 91.9887 22.5406 92.0505 22.4101C92.1124 22.2796 92.1622 22.1697 92.1622 22.1663C92.1622 22.1629 92.2085 22.065 92.2635 21.9482C92.4043 21.6545 92.5125 21.4262 92.5571 21.3248C92.5794 21.2768 92.6361 21.1531 92.6859 21.0501C92.7889 20.8337 92.8594 20.6843 93.0156 20.346C93.0774 20.2138 93.1393 20.085 93.1547 20.0592C93.1805 20.0163 93.1788 20.0094 93.153 19.9819C93.1118 19.9356 92.4867 19.6248 92.3064 19.5595C92.0935 19.4822 91.9784 19.4393 91.9475 19.4256C91.9046 19.4067 91.7569 19.3603 91.5354 19.2933C91.3705 19.2452 91.2778 19.2195 91.0545 19.1645C90.9979 19.1491 90.9206 19.1302 90.8828 19.1199C90.8175 19.1027 90.7231 19.0821 90.4191 19.022C90.3539 19.0083 90.2337 18.9859 90.153 18.9739C90.0723 18.9602 89.9641 18.9413 89.9126 18.9327C89.6515 18.8863 89.0247 18.8142 88.7706 18.8005C88.0081 18.7593 87.7711 18.7558 87.3023 18.7747Z" fill="black"/>
<path d="M52.9196 18.9755C52.9024 18.9789 52.8887 18.9926 52.8887 19.0029C52.8887 19.015 52.8887 20.8747 52.8887 23.1364C52.8887 27.7506 52.8904 27.8021 53.002 28.4684C53.0896 28.9887 53.2115 29.4541 53.3523 29.8165C53.3729 29.868 53.3953 29.9298 53.4038 29.9538C53.4313 30.0431 53.5653 30.3299 53.6563 30.5034C54.0032 31.1525 54.5149 31.7226 55.1262 32.1399C55.5384 32.4215 56.1137 32.6963 56.6065 32.8457C56.6632 32.8629 56.7405 32.8869 56.7782 32.9006C56.8366 32.9195 57.1045 32.9848 57.3707 33.0466C57.5974 33.0998 57.9528 33.1531 58.4611 33.2097C58.8561 33.2544 58.9111 33.2561 59.7834 33.2561C60.6008 33.2561 60.7296 33.2527 61.0456 33.22C61.5367 33.1668 61.9798 33.0998 62.2992 33.0277C62.3885 33.0071 62.4812 32.9865 62.5053 32.9813C62.5293 32.9762 62.5825 32.9625 62.6255 32.9504C62.6684 32.9384 62.7611 32.9109 62.8315 32.8903C63.5184 32.6911 64.1332 32.3906 64.6432 32.0059C65.3971 31.4358 65.9037 30.7283 66.2575 29.7478C66.4395 29.2395 66.5631 28.6934 66.6353 28.082C66.7022 27.4879 66.7022 27.5342 66.7074 23.2085L66.7142 18.9978L66.6696 18.9806C66.6061 18.9566 62.7028 18.9566 62.6581 18.9806C62.6255 18.9995 62.6255 19.0596 62.6255 22.7551C62.6255 25.8874 62.6203 26.564 62.5997 26.8284C62.5585 27.3608 62.4967 27.6544 62.325 28.1301C62.3112 28.1696 62.2597 28.2778 62.2133 28.3671C61.9025 28.9595 61.4595 29.3339 60.8395 29.5228C60.5476 29.6121 60.3845 29.6413 60.0324 29.6636C59.7748 29.6808 59.689 29.6808 59.4314 29.655C59.1395 29.6276 59.0828 29.619 58.8819 29.5657C58.5453 29.4764 58.2585 29.3425 58.0318 29.1708C57.7141 28.9286 57.405 28.5165 57.2711 28.1576C57.2608 28.1301 57.2367 28.0649 57.2161 28.0133C57.1286 27.7849 57.0513 27.4432 56.998 27.0431C56.974 26.8611 56.9689 26.382 56.9637 22.9131C56.9586 19.8392 56.9534 18.9875 56.9362 18.9772C56.9156 18.9634 52.9711 18.9617 52.9196 18.9755Z" fill="black"/>
</svg>
