<svg width="96" height="48" viewBox="0 0 96 48" fill="none" xmlns="http://www.w3.org/2000/svg">
<path d="M92.8569 25.65H3V43.0567H92.8569V25.65Z" fill="#ED1C24"/>
<path d="M24.6459 30.0681H30.4522C33.1449 30.0681 34.9096 30.878 34.9096 32.2938C34.9096 33.3043 33.7748 33.9102 32.5308 34.1706V34.1923C34.0264 34.4146 35.2052 35.126 35.2052 36.2826C35.2052 37.3735 34.3407 38.5664 30.878 38.5664H24.6424V30.0681H24.6459ZM28.0476 37.0145H29.9666C30.8024 37.0145 31.6194 36.7448 31.6194 36.0697C31.6194 35.3072 30.9261 35.1248 29.9666 35.1248H28.0476V37.0145ZM28.0476 33.4369H29.7807C30.6452 33.4369 31.5103 33.2434 31.5103 32.5249C31.5103 31.8281 30.5983 31.6129 29.7807 31.6129H28.0476V33.4369Z" fill="white"/>
<path d="M39.838 30.0681H43.5048L47.5804 38.5688H44.0379L43.33 36.9489H39.2691L38.499 38.5688H35.8064L39.838 30.0681ZM40.0239 35.194H42.5593L41.3629 32.4176H41.3301L40.0239 35.194Z" fill="white"/>
<path d="M49.0613 30.0681H52.2243L56.4599 34.5776H56.4893V30.0681H59.1015V38.5688H56.5514L51.7029 33.7565H51.67V38.5688H49.0577V30.0681H49.0613Z" fill="white"/>
<path d="M61.4188 30.0681H64.8205V33.4756H64.8534L68.3342 30.0681H71.5776L68.6451 32.8774L72.34 38.5664H68.7037L66.3577 34.936L64.8147 36.4099V38.5699H61.413V30.0681H61.4188Z" fill="white"/>
<path d="M3 21.5386H4.91199V6.18995H3V5.22986H13.2667V6.18936H11.3547V21.538H13.2667V22.545H3V21.5386Z" fill="#ED1C24"/>
<path d="M76.7352 7.6521C77.6329 6.75546 78.7044 6.05183 79.884 5.58445C81.0635 5.11707 82.3262 4.89581 83.5943 4.93427C89.1837 4.93427 93 8.95119 93 13.9663C93 18.9815 89.1837 23.0219 83.5943 23.0219C81.3494 23.0715 79.1586 22.3288 77.4068 20.924C76.4645 20.114 75.6967 19.121 75.1499 18.0052C74.6031 16.8894 74.2888 15.6742 74.226 14.4332C74.1632 13.1922 74.3532 11.9514 74.7845 10.7862C75.2159 9.62089 75.8796 8.55542 76.7352 7.65445V7.6521ZM83.5943 22.3187C84.7673 22.3187 85.4037 21.3955 85.4037 19.3011V8.62276C85.4037 6.52837 84.765 5.62751 83.5943 5.62751C82.4237 5.62751 81.8067 6.55066 81.8067 8.62276V19.3035C81.8061 21.3738 82.4231 22.3193 83.5938 22.3193L83.5943 22.3187Z" fill="#ED1C24"/>
<path d="M68.6246 5.22986V6.18936H68.7161C70.6134 6.18936 70.872 6.63804 70.872 8.1342V14.4643L64.1842 5.22986H55.6506V6.18936H55.7421C55.9904 6.17018 56.2399 6.2042 56.4739 6.28916C56.7079 6.37412 56.9212 6.50807 57.0993 6.68203C57.2049 6.83158 57.4201 7.12718 57.6612 7.46265V19.619C57.6612 21.1146 57.5697 21.538 55.7017 21.538H55.6506V22.545H60.9995V21.538H60.8898C59.0435 21.538 58.8834 21.1187 58.8834 19.619V8.96585L68.6938 22.545H72.0433V8.1342C72.0433 6.63863 72.3025 6.18936 74.174 6.18936H74.3271V5.22986H68.6246Z" fill="#ED1C24"/>
<path d="M53.7099 21.5386L47.7757 5.22986H43.0544L37.943 19.568C37.8374 19.9589 37.647 20.3217 37.3852 20.6307C37.1235 20.9397 36.7969 21.1872 36.4287 21.3556C36.1681 21.464 35.8898 21.5237 35.6076 21.5316H34.8487L28.1626 9.92947C28.1626 9.92947 30.366 7.72189 30.596 7.49609C31.3432 6.80981 32.2867 6.3748 33.2939 6.25212C33.6551 6.21576 34.1296 6.18644 34.5419 6.18644V5.22986H26.6277V6.18936H27.4447C27.8388 6.18936 28.6306 6.1747 28.9332 6.7002C29.0254 6.93871 29.039 7.20043 28.972 7.4472C28.905 7.69397 28.7609 7.91288 28.5608 8.07203L23.0008 13.6467V6.18936H24.6354V5.22986H14.6971V6.18936H16.4338V21.538H14.6971V22.545H24.6283V21.538H23.0014V13.6696L27.5292 21.5357H25.6682V22.5427H40.5828V21.5345H40.3348C40.1686 21.5316 40.0027 21.5168 39.8386 21.4905C38.6128 21.1732 38.9049 20.2501 39.153 19.5498L40.0433 17.0103H45.0872L46.7141 21.5345H45.2144V22.5415H54.8389V21.5345H53.7081L53.7099 21.5386ZM40.4515 15.8724L42.5277 9.96172L44.6731 15.8724H40.4515Z" fill="#ED1C24"/>
</svg>
