<?xml version="1.0" encoding="UTF-8"?>
<svg width="160px" height="160px" viewBox="0 0 160 160" version="1.1" xmlns="http://www.w3.org/2000/svg" xmlns:xlink="http://www.w3.org/1999/xlink">
    <title>Artboard</title>
    <g id="Artboard" stroke="none" stroke-width="1" fill="none" fill-rule="evenodd">
        <path d="M104.092535,4.81228699 C62.3703245,-13.8622436 14.0292928,24.7869431 24.4302972,69.5821779 C28.6852535,87.9021288 39.2044511,95.9392685 51.7329337,108.231365 C66.1525079,122.414552 73.2441018,139.788957 73.5986815,160 C97.1191346,135.770388 125.48551,108.822331 134.940969,75.3736462 C142.859915,47.5982368 130.922399,16.8679966 104.092535,4.81228699 Z M66.3888944,84.7109115 L47.832557,84.7109115 L47.832557,40.3884497 L66.3888944,40.3884497 L66.3888944,84.7109115 Z M90.7367001,84.7109115 L72.0621695,84.7109115 L72.0621695,26.0870687 L90.6185069,26.0870687 L90.6185069,84.7109115 L90.7367001,84.7109115 Z M114.966313,84.7109115 L96.4099752,84.7109115 L96.4099752,34.5969813 L114.966313,34.5969813 L114.966313,84.7109115 Z" id="Shape" fill="#2AC768" fill-rule="nonzero"></path>
    </g>
</svg>