<svg width="81" height="24" viewBox="0 0 81 24" fill="none" xmlns="http://www.w3.org/2000/svg">
<path d="M1.11966 20.5899C0.57133 20.5239 0.0733117 20.9149 0.00730148 21.4632C-0.0587087 22.0116 0.332285 22.5096 0.880611 22.5756L1.11966 20.5899ZM80.0413 2.55727C80.1187 2.01043 79.7381 1.50441 79.1913 1.42704L70.28 0.166249C69.7332 0.0888807 69.2272 0.469462 69.1498 1.0163C69.0724 1.56314 69.453 2.06916 69.9999 2.14653L77.921 3.26723L76.8003 11.1883C76.7229 11.7352 77.1035 12.2412 77.6503 12.3186C78.1972 12.3959 78.7032 12.0154 78.7805 11.4685L80.0413 2.55727ZM1.00013 21.5828C0.880611 22.5756 0.881085 22.5757 0.881732 22.5757C0.882178 22.5758 0.882999 22.5759 0.883889 22.576C0.885672 22.5762 0.888145 22.5765 0.891303 22.5769C0.897619 22.5776 0.906678 22.5787 0.918452 22.58C0.941999 22.5827 0.976407 22.5867 1.02145 22.5916C1.11155 22.6016 1.24421 22.6157 1.41766 22.6331C1.76456 22.6677 2.27468 22.715 2.93387 22.7661C4.25216 22.8684 6.16714 22.9862 8.56551 23.0501C13.3612 23.1778 20.0954 23.0896 27.8602 22.2267C43.3742 20.5025 63.0857 15.6762 79.6523 3.21637L78.4501 1.61799C62.2808 13.779 42.9668 18.5355 27.6393 20.2389C19.9832 21.0898 13.3426 21.1766 8.61875 21.0508C6.25732 20.9879 4.3763 20.872 3.08855 20.7721C2.44471 20.7221 1.94929 20.6762 1.61641 20.643C1.44997 20.6263 1.32418 20.6129 1.2408 20.6037C1.1991 20.5991 1.16802 20.5956 1.14775 20.5932C1.13762 20.592 1.13019 20.5912 1.1255 20.5906C1.12316 20.5903 1.12149 20.5902 1.12052 20.59C1.12003 20.59 1.11981 20.59 1.11957 20.5899C1.11953 20.5899 1.11966 20.5899 1.00013 21.5828Z" fill="#2AC768"/>
</svg>
