<svg xmlns="http://www.w3.org/2000/svg" viewBox="0 0 69 69" shape-rendering="crispEdges"><path fill="#ffffff" d="M0 0h69v69H0z"/><path stroke="#000000" d="M0 0.5h7m6 0h1m2 0h1m1 0h1m1 0h1m1 0h1m3 0h2m1 0h1m3 0h1m1 0h1m1 0h1m1 0h4m2 0h1m1 0h3m1 0h6m1 0h3m1 0h7M0 1.5h1m5 0h1m2 0h7m2 0h2m1 0h1m1 0h1m1 0h2m1 0h1m1 0h1m4 0h2m1 0h1m1 0h2m2 0h3m3 0h1m11 0h1m5 0h1M0 2.5h1m1 0h3m1 0h1m1 0h3m5 0h2m5 0h2m1 0h2m3 0h1m1 0h1m1 0h1m1 0h1m1 0h4m1 0h1m7 0h3m1 0h3m3 0h1m1 0h3m1 0h1M0 3.5h1m1 0h3m1 0h1m1 0h2m1 0h3m2 0h2m1 0h1m4 0h3m1 0h3m4 0h1m5 0h3m3 0h2m1 0h1m2 0h3m1 0h1m2 0h1m1 0h1m1 0h3m1 0h1M0 4.5h1m1 0h3m1 0h1m1 0h1m1 0h1m1 0h2m1 0h1m3 0h1m3 0h2m6 0h7m3 0h3m1 0h1m1 0h3m1 0h1m2 0h1m1 0h1m1 0h1m1 0h1m1 0h1m1 0h3m1 0h1M0 5.5h1m5 0h1m1 0h1m1 0h1m1 0h1m5 0h1m2 0h1m6 0h5m3 0h4m3 0h1m1 0h4m1 0h1m2 0h1m1 0h4m3 0h1m5 0h1M0 6.5h7m1 0h1m1 0h1m1 0h1m1 0h1m1 0h1m1 0h1m1 0h1m1 0h1m1 0h1m1 0h1m1 0h1m1 0h1m1 0h1m1 0h1m1 0h1m1 0h1m1 0h1m1 0h1m1 0h1m1 0h1m1 0h1m1 0h1m1 0h1m1 0h1m1 0h1m1 0h1m1 0h1m1 0h7M8 7.5h1m3 0h1m1 0h2m2 0h4m1 0h3m3 0h1m2 0h1m3 0h1m2 0h3m2 0h1m1 0h1m2 0h4m1 0h1m1 0h1M0 8.5h1m1 0h5m3 0h1m3 0h2m1 0h2m1 0h2m1 0h2m2 0h12m4 0h1m2 0h3m1 0h1m2 0h3m1 0h1m1 0h1m2 0h5M0 9.5h2m2 0h2m1 0h3m3 0h1m1 0h1m9 0h1m3 0h1m1 0h2m6 0h3m1 0h2m2 0h3m1 0h6m3 0h2m1 0h1m4 0h1M0 10.5h4m1 0h4m6 0h1m1 0h2m1 0h1m3 0h3m3 0h4m2 0h1m1 0h1m3 0h1m2 0h2m1 0h1m1 0h2m6 0h1m1 0h1m1 0h1m1 0h2m1 0h1M1 11.5h2m1 0h1m3 0h1m3 0h1m2 0h1m4 0h2m1 0h3m1 0h1m2 0h2m3 0h7m2 0h1m4 0h1m1 0h2m2 0h3m2 0h1m4 0h2m1 0h1M0 12.5h1m1 0h3m1 0h3m4 0h1m8 0h1m1 0h2m1 0h2m1 0h1m2 0h2m1 0h2m5 0h1m3 0h2m6 0h1m1 0h3m2 0h1m2 0h4M3 13.5h1m3 0h2m3 0h1m2 0h3m1 0h1m1 0h1m1 0h1m5 0h1m2 0h1m1 0h2m1 0h1m2 0h3m4 0h3m1 0h1m1 0h4m2 0h3m1 0h4m1 0h1M3 14.5h4m1 0h1m2 0h1m2 0h2m5 0h1m3 0h1m1 0h4m1 0h3m1 0h1m1 0h1m4 0h1m2 0h1m1 0h1m1 0h1m2 0h2m1 0h2m1 0h2m1 0h2m1 0h1m1 0h1M2 15.5h2m4 0h1m3 0h3m2 0h1m1 0h1m3 0h3m1 0h1m2 0h1m4 0h6m1 0h3m1 0h1m2 0h1m1 0h8m1 0h1m3 0h1m1 0h1M0 16.5h3m2 0h3m1 0h3m1 0h3m2 0h2m1 0h1m1 0h3m1 0h4m1 0h1m1 0h3m1 0h1m3 0h1m2 0h1m1 0h3m3 0h3m1 0h2m3 0h1m4 0h1M0 17.5h3m1 0h1m2 0h1m1 0h2m1 0h2m5 0h1m1 0h1m1 0h1m1 0h1m5 0h1m2 0h1m1 0h7m1 0h1m4 0h1m4 0h4m1 0h3m2 0h1m1 0h1M2 18.5h2m2 0h1m1 0h1m2 0h2m2 0h4m2 0h2m1 0h2m1 0h3m2 0h1m1 0h3m3 0h1m4 0h3m2 0h2m3 0h1m1 0h2m4 0h1m1 0h1m1 0h1M0 19.5h1m1 0h2m4 0h15m3 0h1m3 0h2m3 0h1m2 0h1m3 0h4m2 0h7m1 0h1m1 0h2m1 0h1m1 0h5M0 20.5h1m2 0h1m1 0h3m2 0h1m2 0h3m1 0h2m2 0h1m3 0h1m2 0h4m1 0h3m1 0h3m2 0h2m3 0h2m4 0h1m1 0h1m1 0h4m5 0h3M0 21.5h2m1 0h1m1 0h1m1 0h2m2 0h1m1 0h3m1 0h8m1 0h1m6 0h1m1 0h1m6 0h2m3 0h1m1 0h1m2 0h1m1 0h3m2 0h3m1 0h1m4 0h1M1 22.5h3m2 0h2m1 0h5m1 0h1m1 0h2m1 0h1m1 0h1m1 0h1m1 0h1m2 0h2m1 0h8m1 0h1m1 0h5m2 0h1m1 0h1m4 0h2m1 0h3m2 0h1m1 0h1M0 23.5h1m3 0h2m1 0h1m1 0h1m2 0h1m1 0h1m5 0h1m1 0h5m2 0h3m3 0h7m2 0h1m5 0h1m1 0h1m1 0h1m1 0h1m1 0h2m2 0h7M0 24.5h1m1 0h2m2 0h3m1 0h1m2 0h1m2 0h2m1 0h1m2 0h3m5 0h1m1 0h1m2 0h2m1 0h1m2 0h1m4 0h3m1 0h1m4 0h1m2 0h1m2 0h1M0 25.5h4m3 0h2m2 0h4m2 0h1m1 0h1m2 0h1m1 0h2m3 0h1m1 0h2m1 0h3m3 0h5m4 0h1m1 0h4m4 0h3m1 0h4m1 0h1M0 26.5h2m1 0h1m1 0h2m3 0h2m2 0h5m2 0h5m1 0h1m1 0h5m1 0h4m1 0h8m1 0h1m2 0h1m2 0h1m1 0h1m1 0h3m2 0h4M0 27.5h3m4 0h1m1 0h3m4 0h3m2 0h1m1 0h2m3 0h1m1 0h1m9 0h1m4 0h1m1 0h3m1 0h2m3 0h2m2 0h3m1 0h3M0 28.5h2m4 0h2m5 0h1m2 0h4m1 0h1m4 0h1m1 0h3m1 0h3m2 0h1m4 0h1m3 0h4m4 0h2m3 0h1m2 0h2m1 0h1m2 0h1M0 29.5h2m1 0h3m2 0h2m1 0h4m1 0h3m1 0h1m1 0h1m4 0h1m1 0h1m4 0h1m2 0h1m1 0h1m1 0h3m5 0h1m1 0h4m1 0h1m3 0h2m5 0h2M6 30.5h1m2 0h1m1 0h1m2 0h1m1 0h1m1 0h2m2 0h1m2 0h1m1 0h2m1 0h1m1 0h1m2 0h2m1 0h2m3 0h1m1 0h2m3 0h1m1 0h1m2 0h1m1 0h3m2 0h3m1 0h1M0 31.5h1m1 0h2m3 0h1m5 0h1m2 0h2m2 0h3m1 0h2m2 0h4m3 0h4m1 0h2m2 0h1m2 0h1m2 0h5m1 0h1m3 0h2m2 0h4M1 32.5h2m1 0h6m2 0h1m1 0h4m6 0h2m4 0h1m1 0h5m1 0h1m4 0h1m1 0h1m1 0h3m4 0h2m1 0h1m1 0h6M0 33.5h1m1 0h1m1 0h1m3 0h3m3 0h2m3 0h4m2 0h3m1 0h2m1 0h1m3 0h2m2 0h3m1 0h1m2 0h2m3 0h3m1 0h1m2 0h2m3 0h1m2 0h2M1 34.5h2m1 0h1m1 0h1m1 0h1m2 0h3m1 0h3m3 0h1m2 0h2m3 0h1m1 0h2m1 0h1m1 0h1m1 0h1m1 0h2m3 0h4m1 0h1m1 0h1m2 0h1m1 0h2m1 0h1m1 0h1m1 0h3M0 35.5h1m2 0h2m3 0h5m3 0h1m1 0h1m2 0h1m2 0h1m1 0h2m1 0h2m1 0h1m3 0h2m1 0h4m1 0h1m1 0h2m3 0h2m4 0h1m2 0h1m3 0h4M3 36.5h6m1 0h3m3 0h1m3 0h4m4 0h1m1 0h8m4 0h2m1 0h5m1 0h1m2 0h2m1 0h8m2 0h1M0 37.5h1m1 0h1m2 0h1m1 0h1m1 0h1m3 0h2m1 0h4m3 0h4m2 0h1m1 0h4m2 0h1m1 0h5m4 0h2m1 0h1m1 0h5m3 0h1m5 0h2M1 38.5h2m1 0h1m1 0h7m1 0h1m7 0h2m1 0h3m1 0h1m2 0h1m5 0h1m1 0h2m1 0h2m1 0h3m1 0h2m3 0h2m1 0h1m1 0h2m1 0h1m3 0h1M0 39.5h2m6 0h2m4 0h1m2 0h1m1 0h1m1 0h1m2 0h2m1 0h1m4 0h1m2 0h2m1 0h3m1 0h1m1 0h1m1 0h1m4 0h3m2 0h1m2 0h1m1 0h2m2 0h4M0 40.5h1m1 0h1m2 0h2m1 0h3m1 0h1m1 0h2m1 0h1m2 0h1m3 0h3m1 0h3m1 0h2m1 0h3m3 0h1m1 0h1m1 0h5m3 0h3m1 0h2m1 0h1m3 0h4M0 41.5h2m5 0h2m1 0h1m1 0h1m3 0h2m1 0h2m1 0h4m5 0h2m1 0h1m1 0h2m1 0h5m5 0h1m1 0h1m1 0h3m6 0h2m1 0h1m2 0h1M4 42.5h1m1 0h1m2 0h2m1 0h2m2 0h1m1 0h4m1 0h1m1 0h1m1 0h2m1 0h1m1 0h2m2 0h4m1 0h1m1 0h4m1 0h1m1 0h1m3 0h2m1 0h2m1 0h2m5 0h1M2 43.5h2m1 0h1m1 0h5m1 0h2m3 0h1m12 0h2m1 0h2m1 0h1m1 0h2m1 0h1m2 0h1m3 0h1m2 0h8m2 0h1m2 0h4M0 44.5h7m1 0h1m1 0h5m1 0h1m3 0h5m2 0h7m3 0h1m1 0h1m1 0h3m2 0h4m4 0h1m6 0h2m1 0h1M0 45.5h2m5 0h1m2 0h1m4 0h3m1 0h1m1 0h1m4 0h1m7 0h2m6 0h3m4 0h1m2 0h6m1 0h4m2 0h1m2 0h1M0 46.5h2m1 0h1m2 0h3m1 0h2m1 0h1m1 0h2m3 0h2m2 0h1m1 0h3m1 0h1m1 0h1m1 0h1m2 0h2m2 0h6m1 0h1m1 0h3m2 0h1m1 0h2m5 0h2m1 0h1M1 47.5h2m1 0h1m2 0h1m2 0h2m2 0h3m3 0h3m1 0h1m1 0h2m5 0h4m2 0h3m2 0h2m3 0h1m1 0h3m2 0h1m2 0h9M0 48.5h1m2 0h2m1 0h1m1 0h1m1 0h2m1 0h3m2 0h3m2 0h6m1 0h1m3 0h2m1 0h1m4 0h2m1 0h5m3 0h1m1 0h1m1 0h2m1 0h1m1 0h3M0 49.5h3m1 0h1m3 0h3m1 0h1m2 0h3m3 0h1m1 0h2m1 0h1m2 0h1m1 0h3m2 0h2m3 0h2m1 0h1m2 0h1m1 0h1m3 0h4m2 0h3m3 0h1m2 0h1M0 50.5h1m1 0h3m1 0h3m6 0h4m3 0h1m2 0h2m1 0h2m2 0h3m1 0h1m1 0h3m2 0h2m2 0h5m3 0h2m1 0h1m1 0h2m2 0h1m2 0h1M0 51.5h2m1 0h1m1 0h1m1 0h3m4 0h1m4 0h5m1 0h1m2 0h2m2 0h5m2 0h2m1 0h3m4 0h8m1 0h2m2 0h2m1 0h3M0 52.5h1m3 0h1m1 0h2m2 0h1m2 0h1m1 0h2m1 0h2m2 0h1m2 0h1m1 0h5m3 0h1m1 0h1m3 0h2m4 0h2m1 0h1m4 0h1m2 0h1m2 0h1m2 0h1M1 53.5h2m1 0h2m2 0h1m1 0h1m2 0h1m1 0h1m3 0h2m4 0h1m1 0h1m1 0h2m1 0h1m3 0h1m4 0h4m4 0h1m1 0h7m3 0h1m4 0h3M1 54.5h1m4 0h2m2 0h1m1 0h2m1 0h1m1 0h1m6 0h1m1 0h1m2 0h1m7 0h1m1 0h2m2 0h4m1 0h1m1 0h1m4 0h1m1 0h2m1 0h2m3 0h2M1 55.5h3m3 0h1m2 0h2m2 0h3m3 0h2m3 0h2m3 0h2m1 0h1m1 0h5m2 0h1m1 0h1m1 0h5m2 0h1m1 0h5m2 0h1m3 0h1M1 56.5h3m1 0h2m1 0h2m1 0h2m1 0h2m2 0h4m1 0h2m3 0h3m5 0h3m1 0h1m2 0h1m1 0h1m1 0h2m6 0h1m1 0h1m2 0h2m1 0h2M0 57.5h4m1 0h1m2 0h2m2 0h1m1 0h3m3 0h2m2 0h2m5 0h4m1 0h2m1 0h2m1 0h2m4 0h2m1 0h4m1 0h2m1 0h2m1 0h1M0 58.5h1m1 0h1m1 0h3m2 0h2m1 0h1m1 0h1m3 0h2m3 0h2m3 0h1m1 0h1m2 0h1m1 0h2m1 0h1m1 0h2m5 0h1m2 0h3m2 0h2m1 0h1m1 0h1m3 0h1m1 0h2M0 59.5h1m6 0h2m4 0h1m3 0h1m4 0h4m2 0h1m2 0h2m2 0h4m2 0h1m2 0h1m4 0h6m1 0h1m1 0h2m2 0h1m1 0h5M0 60.5h1m2 0h2m1 0h6m3 0h2m2 0h3m3 0h6m1 0h6m3 0h1m1 0h1m3 0h4m2 0h3m1 0h1m2 0h6m1 0h2M8 61.5h1m2 0h1m7 0h5m2 0h1m3 0h1m1 0h1m3 0h2m1 0h1m1 0h4m4 0h1m3 0h3m3 0h2m3 0h5M0 62.5h7m2 0h1m1 0h1m1 0h1m3 0h1m1 0h6m4 0h4m1 0h1m1 0h1m6 0h1m1 0h3m1 0h4m4 0h2m1 0h1m1 0h1m1 0h1m1 0h1M0 63.5h1m5 0h1m1 0h5m2 0h1m1 0h9m1 0h1m2 0h3m3 0h2m2 0h1m1 0h1m1 0h3m2 0h1m1 0h3m2 0h1m1 0h3m3 0h3m1 0h1M0 64.5h1m1 0h3m1 0h1m1 0h1m1 0h1m3 0h4m3 0h1m1 0h1m3 0h4m1 0h5m4 0h3m2 0h3m4 0h2m2 0h1m2 0h5M0 65.5h1m1 0h3m1 0h1m1 0h2m2 0h2m1 0h1m1 0h3m1 0h1m1 0h2m4 0h1m1 0h1m4 0h2m1 0h1m1 0h5m2 0h2m3 0h3m3 0h1m4 0h1m1 0h1M0 66.5h1m1 0h3m1 0h1m1 0h1m4 0h1m2 0h2m2 0h1m1 0h1m6 0h1m1 0h1m1 0h3m2 0h1m7 0h3m1 0h2m1 0h1m1 0h1m4 0h1m4 0h2M0 67.5h1m5 0h1m3 0h1m3 0h8m2 0h4m3 0h2m1 0h1m2 0h2m2 0h6m2 0h2m2 0h1m1 0h5m1 0h1m1 0h4M0 68.5h7m1 0h4m2 0h2m1 0h3m6 0h2m1 0h1m4 0h3m1 0h1m3 0h2m3 0h2m1 0h1m2 0h1m1 0h1m3 0h1m1 0h2m1 0h1m2 0h1"/></svg>
